# Blender v2.79 (sub 0) OBJ File: ''
# www.blender.org
o Cylinder_Cylinder.001
v 0.143175 0.174963 0.216956
v -0.132920 0.705337 0.216956
v 0.069531 0.136626 0.200441
v -0.206564 0.667000 0.200441
v 0.007098 0.104126 0.153411
v -0.268997 0.634499 0.153411
v -0.034618 0.082410 0.083025
v -0.310713 0.612783 0.083025
v -0.049267 0.074784 0.000000
v -0.325362 0.605158 0.000000
v -0.034618 0.082410 -0.083025
v -0.310713 0.612783 -0.083025
v 0.007098 0.104126 -0.153411
v -0.268997 0.634499 -0.153411
v 0.069531 0.136626 -0.200441
v -0.206564 0.667000 -0.200441
v 0.143175 0.174963 -0.216956
v -0.132920 0.705337 -0.216956
v 0.216819 0.213300 -0.200441
v -0.059276 0.743674 -0.200441
v 0.279252 0.245800 -0.153411
v 0.003157 0.776174 -0.153411
v 0.320968 0.267516 -0.083025
v 0.044873 0.797890 -0.083025
v 0.335617 0.275142 -0.000000
v 0.059522 0.805516 -0.000000
v 0.320968 0.267516 0.083025
v 0.044873 0.797890 0.083025
v 0.279252 0.245800 0.153411
v 0.003157 0.776174 0.153411
v 0.216819 0.213300 0.200441
v -0.059276 0.743674 0.200441
v -0.132920 0.705337 0.073662
v -0.157924 0.692320 0.068055
v -0.179121 0.681286 0.052087
v -0.193285 0.673913 0.028189
v -0.198259 0.671324 0.000000
v -0.193285 0.673913 -0.028189
v -0.179121 0.681286 -0.052087
v -0.157924 0.692320 -0.068055
v -0.132920 0.705337 -0.073662
v -0.107916 0.718353 -0.068055
v -0.086718 0.729388 -0.052087
v -0.072555 0.736761 -0.028189
v -0.067581 0.739350 0.000000
v -0.072555 0.736761 0.028189
v -0.086718 0.729388 0.052087
v -0.107916 0.718353 0.068055
v -0.165048 0.767054 0.073662
v -0.190052 0.754038 0.068055
v -0.211249 0.743003 0.052087
v -0.225413 0.735630 0.028189
v -0.230387 0.733041 0.000000
v -0.225413 0.735630 -0.028189
v -0.211249 0.743003 -0.052087
v -0.190052 0.754038 -0.068055
v -0.165048 0.767054 -0.073662
v -0.140044 0.780070 -0.068055
v -0.118846 0.791105 -0.052087
v -0.104683 0.798478 -0.028189
v -0.099709 0.801067 0.000000
v -0.104683 0.798478 0.028189
v -0.118846 0.791105 0.052087
v -0.140044 0.780070 0.068055
v 0.138990 0.183003 0.171270
v 0.080853 0.152739 0.158233
v 0.031567 0.127083 0.121106
v -0.001365 0.109940 0.065542
v -0.012929 0.103920 0.000000
v -0.001365 0.109940 -0.065542
v 0.031567 0.127083 -0.121106
v 0.080853 0.152739 -0.158233
v 0.138990 0.183003 -0.171270
v 0.197126 0.213268 -0.158233
v 0.246412 0.238924 -0.121106
v 0.279344 0.256067 -0.065542
v 0.290908 0.262087 -0.000000
v 0.279344 0.256067 0.065542
v 0.246412 0.238924 0.121106
v 0.197126 0.213267 0.158233
v 0.143175 0.174963 0.216956
v 0.069531 0.136626 0.200441
v -0.206564 0.667000 0.200441
v -0.132920 0.705337 0.216956
v 0.007098 0.104126 0.153411
v -0.268997 0.634499 0.153411
v -0.034618 0.082410 0.083025
v -0.310713 0.612783 0.083025
v -0.049267 0.074784 0.000000
v -0.325362 0.605158 0.000000
v -0.034618 0.082410 -0.083025
v -0.310713 0.612783 -0.083025
v 0.007098 0.104126 -0.153411
v -0.268997 0.634499 -0.153411
v 0.069531 0.136626 -0.200441
v -0.206564 0.667000 -0.200441
v 0.143175 0.174963 -0.216956
v -0.132920 0.705337 -0.216956
v 0.216819 0.213300 -0.200441
v -0.059276 0.743674 -0.200441
v 0.279252 0.245800 -0.153411
v 0.003157 0.776174 -0.153411
v 0.320968 0.267516 -0.083025
v 0.044873 0.797890 -0.083025
v 0.335617 0.275142 -0.000000
v 0.059522 0.805516 -0.000000
v 0.320968 0.267516 0.083025
v 0.044873 0.797890 0.083025
v 0.279252 0.245800 0.153411
v 0.003157 0.776174 0.153411
v 0.216819 0.213300 0.200441
v -0.059276 0.743674 0.200441
v -0.157924 0.692320 0.068055
v -0.132920 0.705337 0.073662
v -0.179121 0.681286 0.052087
v -0.193285 0.673913 0.028189
v -0.198259 0.671324 0.000000
v -0.193285 0.673913 -0.028189
v -0.179121 0.681286 -0.052087
v -0.157924 0.692320 -0.068055
v -0.132920 0.705337 -0.073662
v -0.107916 0.718353 -0.068055
v -0.086718 0.729388 -0.052087
v -0.072555 0.736761 -0.028189
v -0.067581 0.739350 0.000000
v -0.072555 0.736761 0.028189
v -0.086718 0.729388 0.052087
v -0.107916 0.718353 0.068055
v -0.190052 0.754038 0.068055
v -0.165048 0.767054 0.073662
v -0.211249 0.743003 0.052087
v -0.225413 0.735630 0.028189
v -0.230387 0.733041 0.000000
v -0.225413 0.735630 -0.028189
v -0.211249 0.743003 -0.052087
v -0.190052 0.754038 -0.068055
v -0.165048 0.767054 -0.073662
v -0.140044 0.780070 -0.068055
v -0.118846 0.791105 -0.052087
v -0.104683 0.798478 -0.028189
v -0.099709 0.801067 0.000000
v -0.104683 0.798478 0.028189
v -0.118846 0.791105 0.052087
v -0.140044 0.780070 0.068055
vt 0.250077 -0.002240
vt 0.187596 0.850126
vt 0.187596 -0.002240
vt 0.125115 -0.002240
vt 0.125115 0.850126
vt 0.062634 -0.002240
vt 0.062634 0.850126
vt 0.000153 -0.002240
vt 0.999847 0.850126
vt 0.937366 -0.002240
vt 0.999847 -0.002240
vt 0.937366 0.850126
vt 0.874885 -0.002240
vt 0.812404 0.850126
vt 0.812404 -0.002240
vt 0.749923 -0.002240
vt 0.749923 0.850126
vt 0.687443 -0.002240
vt 0.687443 0.850126
vt 0.624962 -0.002240
vt 0.624962 0.850126
vt 0.562481 -0.002240
vt 0.500000 0.850126
vt 0.500000 -0.002240
vt 0.437519 -0.002240
vt 0.437519 0.850126
vt 0.375038 -0.002240
vt 0.174652 0.920031
vt 0.153064 0.929209
vt 0.165386 0.910766
vt 0.375038 0.850126
vt 0.312557 -0.002240
vt 0.250077 0.850126
vt 0.103014 0.945433
vt 0.096350 0.934396
vt 0.103011 0.933062
vt 0.403593 0.963956
vt 0.391943 0.935754
vt 0.403593 0.935754
vt 0.118806 0.920031
vt 0.135546 0.936465
vt 0.113791 0.932137
vt 0.140177 0.971627
vt 0.148953 0.949872
vt 0.153281 0.971627
vt 0.179666 0.932137
vt 0.157912 0.940914
vt 0.157912 0.936465
vt 0.128071 0.910766
vt 0.144504 0.927506
vt 0.140394 0.929209
vt 0.128071 0.966612
vt 0.137248 0.945024
vt 0.140394 0.948170
vt 0.165386 0.966612
vt 0.156209 0.945024
vt 0.174652 0.957347
vt 0.148953 0.927506
vt 0.153281 0.905752
vt 0.135546 0.940914
vt 0.113791 0.945241
vt 0.153064 0.948170
vt 0.156209 0.932354
vt 0.137248 0.932354
vt 0.144504 0.949872
vt 0.179666 0.945241
vt 0.140177 0.905752
vt 0.118806 0.957347
vt 0.644630 0.925223
vt 0.659256 0.928132
vt 0.664631 0.955157
vt 0.496789 0.963956
vt 0.508438 0.935754
vt 0.508438 0.963956
vt 0.415242 0.935754
vt 0.415242 0.963956
vt 0.322046 0.963956
vt 0.333695 0.935754
vt 0.333695 0.963956
vt 0.426892 0.935754
vt 0.426892 0.963956
vt 0.345345 0.935754
vt 0.345345 0.963956
vt 0.438541 0.935754
vt 0.438541 0.963956
vt 0.356994 0.935754
vt 0.356995 0.963956
vt 0.450191 0.963956
vt 0.450191 0.935754
vt 0.368644 0.935754
vt 0.368644 0.963956
vt 0.473490 0.963956
vt 0.461840 0.935754
vt 0.473490 0.935754
vt 0.461840 0.963956
vt 0.380294 0.935754
vt 0.380294 0.963956
vt 0.485139 0.935754
vt 0.485139 0.963956
vt 0.391943 0.963956
vt 0.496789 0.935754
vt 0.067042 0.963681
vt 0.047467 0.934380
vt 0.096349 0.944114
vt 0.054289 0.965613
vt 0.065723 0.970348
vt 0.098271 0.921637
vt 0.085754 0.918553
vt 0.089519 0.912899
vt 0.054288 0.912890
vt 0.051189 0.925403
vt 0.045538 0.921633
vt 0.078098 0.970348
vt 0.085750 0.959966
vt 0.089531 0.965613
vt 0.040803 0.933061
vt 0.047466 0.944100
vt 0.040803 0.945433
vt 0.076769 0.914838
vt 0.078090 0.908173
vt 0.098280 0.956863
vt 0.051185 0.953082
vt 0.058059 0.959958
vt 0.065719 0.908165
vt 0.058064 0.918537
vt 0.092630 0.925420
vt 0.076766 0.963684
vt 0.092627 0.953093
vt 0.045539 0.956864
vt 0.067046 0.914828
vt 0.000154 0.850126
vt 0.874885 0.850126
vt 0.562481 0.850126
vt 0.312558 0.850126
vt 0.659256 0.960533
vt 0.652232 0.963442
vt 0.644630 0.963442
vt 0.637607 0.960533
vt 0.632231 0.955157
vt 0.629322 0.948133
vt 0.629322 0.940531
vt 0.632231 0.933508
vt 0.637607 0.928132
vt 0.652232 0.925223
vt 0.664631 0.933508
vt 0.667541 0.940531
vt 0.667541 0.948134
vt 0.322046 0.935754
vn 0.0000 0.0000 1.0000
vn -0.3394 -0.1767 0.9239
vn -0.6272 -0.3265 0.7071
vn -0.8195 -0.4266 0.3827
vn -0.8870 -0.4617 0.0000
vn -0.8195 -0.4266 -0.3827
vn -0.6272 -0.3265 -0.7071
vn -0.3394 -0.1767 -0.9239
vn 0.0000 0.0000 -1.0000
vn 0.3394 0.1767 -0.9239
vn 0.6272 0.3265 -0.7071
vn 0.8195 0.4266 -0.3827
vn 0.8870 0.4617 0.0000
vn 0.8195 0.4266 0.3827
vn 0.6272 0.3265 0.7071
vn -0.4617 0.8870 0.0000
vn 0.3394 0.1767 0.9239
vn 0.6124 -0.7870 -0.0745
vn 0.5278 -0.8458 -0.0777
vn 0.5750 -0.8065 -0.1376
vn 0.4962 -0.8622 0.1015
vn 0.3689 -0.9285 0.0420
vn 0.5490 -0.8348 -0.0420
vn 0.4529 -0.8700 0.1946
vn 0.5190 -0.8357 0.1798
vn 0.5190 -0.8357 -0.1798
vn 0.4589 -0.8816 -0.1098
vn 0.4529 -0.8700 -0.1946
vn 0.2934 -0.9531 -0.0745
vn 0.3615 -0.9323 0.0000
vn 0.2803 -0.9599 0.0000
vn 0.5750 -0.8065 0.1376
vn 0.5490 -0.8348 0.0420
vn 0.6124 -0.7870 0.0745
vn 0.2934 -0.9531 0.0745
vn 0.3900 -0.9175 0.0777
vn 0.3309 -0.9336 0.1376
vn 0.4216 -0.9010 -0.1015
vn 0.3869 -0.9044 -0.1798
vn 0.6255 -0.7802 0.0000
vn 0.4216 -0.9010 0.1015
vn 0.4589 -0.8816 0.1098
vn 0.3309 -0.9336 -0.1376
vn 0.3689 -0.9285 -0.0420
vn 0.4962 -0.8622 -0.1015
vn 0.5278 -0.8458 0.0777
vn 0.5564 -0.8309 0.0000
vn 0.3869 -0.9044 0.1798
vn 0.3900 -0.9175 -0.0777
s 1
f 81/1/1 83/2/2 82/3/2
f 83/2/2 85/4/3 82/3/2
f 86/5/3 87/6/4 85/4/3
f 88/7/4 89/8/5 87/6/4
f 90/9/5 91/10/6 89/11/5
f 92/12/6 93/13/7 91/10/6
f 93/13/7 96/14/8 95/15/8
f 96/14/8 97/16/9 95/15/8
f 98/17/9 99/18/10 97/16/9
f 100/19/10 101/20/11 99/18/10
f 102/21/11 103/22/12 101/20/11
f 103/22/12 106/23/13 105/24/13
f 106/23/13 107/25/14 105/24/13
f 108/26/14 109/27/15 107/25/14
f 10/28/16 118/29/16 12/30/16
f 110/31/15 111/32/17 109/27/15
f 111/32/17 84/33/1 81/1/1
f 7/34/18 67/35/19 5/36/20
f 124/37/12 59/38/11 140/39/12
f 20/40/16 123/41/16 22/42/16
f 30/43/16 128/44/16 32/45/16
f 8/46/16 115/47/16 116/48/16
f 18/49/16 120/50/16 121/51/16
f 28/52/16 125/53/16 126/54/16
f 2/55/16 113/56/16 4/57/16
f 12/30/16 119/58/16 14/59/16
f 22/42/16 44/60/16 24/61/16
f 32/45/16 114/62/16 2/55/16
f 10/28/16 116/48/16 117/63/16
f 18/49/16 122/64/16 20/40/16
f 30/43/16 126/54/16 127/65/16
f 4/57/16 115/47/16 6/66/16
f 14/59/16 120/50/16 16/67/16
f 24/61/16 125/53/16 26/68/16
f 137/69/16 135/70/16 131/71/16
f 36/72/4 53/73/5 37/74/5
f 124/37/12 61/75/13 45/76/13
f 37/77/5 54/78/6 38/79/6
f 45/76/13 62/80/14 46/81/14
f 38/79/6 55/82/7 39/83/7
f 46/81/14 63/84/15 47/85/15
f 39/83/7 56/86/8 40/87/8
f 48/88/17 63/84/15 64/89/17
f 40/87/8 57/90/9 41/91/9
f 34/92/2 49/93/1 50/94/2
f 48/88/17 49/93/1 33/95/1
f 41/91/9 58/96/10 42/97/10
f 34/92/2 51/98/3 35/99/3
f 42/97/10 59/38/11 43/100/11
f 36/72/4 51/98/3 52/101/4
f 72/102/21 76/103/22 68/104/23
f 17/105/24 72/102/21 15/106/25
f 3/107/26 65/108/27 1/109/28
f 27/110/29 77/111/30 25/112/31
f 13/113/32 70/114/33 11/115/34
f 23/116/35 75/117/36 21/118/37
f 1/109/28 80/119/38 31/120/39
f 9/121/40 68/104/23 7/34/18
f 17/105/24 74/122/41 73/123/42
f 29/124/43 78/125/44 27/110/29
f 5/36/20 66/126/45 3/107/26
f 13/113/32 72/102/21 71/127/46
f 23/116/35 77/111/30 76/103/22
f 11/115/34 69/128/47 9/121/40
f 19/129/48 75/117/36 74/122/41
f 29/124/43 80/119/38 79/130/49
f 81/1/1 84/33/1 83/2/2
f 83/2/2 86/5/3 85/4/3
f 86/5/3 88/7/4 87/6/4
f 88/7/4 90/131/5 89/8/5
f 90/9/5 92/12/6 91/10/6
f 92/12/6 94/132/7 93/13/7
f 93/13/7 94/132/7 96/14/8
f 96/14/8 98/17/9 97/16/9
f 98/17/9 100/19/10 99/18/10
f 100/19/10 102/21/11 101/20/11
f 102/21/11 104/133/12 103/22/12
f 103/22/12 104/133/12 106/23/13
f 106/23/13 108/26/14 107/25/14
f 108/26/14 110/31/15 109/27/15
f 10/28/16 117/63/16 118/29/16
f 110/31/15 112/134/17 111/32/17
f 111/32/17 112/134/17 84/33/1
f 7/34/18 68/104/23 67/35/19
f 124/37/12 43/100/11 59/38/11
f 20/40/16 122/64/16 123/41/16
f 30/43/16 127/65/16 128/44/16
f 8/46/16 6/66/16 115/47/16
f 18/49/16 16/67/16 120/50/16
f 28/52/16 26/68/16 125/53/16
f 2/55/16 114/62/16 113/56/16
f 12/30/16 118/29/16 119/58/16
f 22/42/16 123/41/16 44/60/16
f 32/45/16 128/44/16 114/62/16
f 10/28/16 8/46/16 116/48/16
f 18/49/16 121/51/16 122/64/16
f 30/43/16 28/52/16 126/54/16
f 4/57/16 113/56/16 115/47/16
f 14/59/16 119/58/16 120/50/16
f 24/61/16 44/60/16 125/53/16
f 131/71/16 129/135/16 130/136/16
f 130/136/16 144/137/16 143/138/16
f 143/138/16 142/139/16 141/140/16
f 141/140/16 60/141/16 139/142/16
f 139/142/16 138/143/16 137/69/16
f 137/69/16 136/144/16 135/70/16
f 135/70/16 134/145/16 133/146/16
f 133/146/16 132/147/16 131/71/16
f 131/71/16 130/136/16 143/138/16
f 143/138/16 141/140/16 139/142/16
f 139/142/16 137/69/16 131/71/16
f 135/70/16 133/146/16 131/71/16
f 131/71/16 143/138/16 139/142/16
f 36/72/4 52/101/4 53/73/5
f 124/37/12 140/39/12 61/75/13
f 37/77/5 53/148/5 54/78/6
f 45/76/13 61/75/13 62/80/14
f 38/79/6 54/78/6 55/82/7
f 46/81/14 62/80/14 63/84/15
f 39/83/7 55/82/7 56/86/8
f 48/88/17 47/85/15 63/84/15
f 40/87/8 56/86/8 57/90/9
f 34/92/2 33/95/1 49/93/1
f 48/88/17 64/89/17 49/93/1
f 41/91/9 57/90/9 58/96/10
f 34/92/2 50/94/2 51/98/3
f 42/97/10 58/96/10 59/38/11
f 36/72/4 35/99/3 51/98/3
f 80/119/38 65/108/27 66/126/45
f 66/126/45 67/35/19 68/104/23
f 68/104/23 69/128/47 70/114/33
f 70/114/33 71/127/46 72/102/21
f 72/102/21 73/123/42 74/122/41
f 74/122/41 75/117/36 76/103/22
f 76/103/22 77/111/30 78/125/44
f 78/125/44 79/130/49 76/103/22
f 80/119/38 66/126/45 68/104/23
f 68/104/23 70/114/33 72/102/21
f 72/102/21 74/122/41 76/103/22
f 76/103/22 79/130/49 80/119/38
f 80/119/38 68/104/23 76/103/22
f 17/105/24 73/123/42 72/102/21
f 3/107/26 66/126/45 65/108/27
f 27/110/29 78/125/44 77/111/30
f 13/113/32 71/127/46 70/114/33
f 23/116/35 76/103/22 75/117/36
f 1/109/28 65/108/27 80/119/38
f 9/121/40 69/128/47 68/104/23
f 17/105/24 19/129/48 74/122/41
f 29/124/43 79/130/49 78/125/44
f 5/36/20 67/35/19 66/126/45
f 13/113/32 15/106/25 72/102/21
f 23/116/35 25/112/31 77/111/30
f 11/115/34 70/114/33 69/128/47
f 19/129/48 21/118/37 75/117/36
f 29/124/43 31/120/39 80/119/38
