# Blender v2.72 (sub 0) OBJ File: 'camera.blend'
# www.blender.org
o Cube
v 0.170017 -0.130974 0.002505
v 0.100000 -0.100000 0.144640
v -0.100000 -0.100000 0.144640
v -0.170016 -0.130974 0.002505
v 0.170017 0.136989 0.002506
v 0.100000 0.100000 0.144640
v -0.100000 0.100000 0.144639
v -0.170017 0.136989 0.002505
v 0.140571 -0.108291 0.002505
v -0.140571 -0.108291 0.002505
v 0.140571 0.114305 0.002506
v -0.140571 0.114305 0.002505
v 0.114819 -0.081598 0.098366
v -0.114819 -0.081598 0.098366
v 0.114819 0.081598 0.098366
v -0.114819 0.081598 0.098366
v 0.100000 -0.100000 0.264421
v -0.100000 -0.100000 0.264421
v 0.100000 0.100000 0.264421
v -0.100000 0.100000 0.264421
v 0.129304 -0.129304 0.264421
v -0.129304 -0.129304 0.264421
v 0.129304 0.129304 0.264421
v -0.129304 0.129304 0.264421
v 0.129304 -0.129304 0.619074
v -0.129304 -0.129304 0.619074
v 0.129304 0.129304 0.619074
v -0.129304 0.129304 0.619074
v 0.101245 -0.096730 0.619074
v -0.014928 -0.096730 0.619074
v 0.101245 0.096730 0.619074
v -0.014928 0.096730 0.619074
v 0.101245 -0.096730 0.658962
v -0.014928 -0.096730 0.658962
v 0.101245 0.096730 0.658962
v -0.014928 0.096730 0.658962
v 0.129304 -0.101948 0.301938
v 0.129304 0.101948 0.301938
v 0.129304 -0.101948 0.581558
v 0.129304 0.101948 0.581558
v 0.158358 -0.092365 0.315079
v 0.158358 0.092365 0.315079
v 0.158358 -0.092365 0.537766
v 0.158358 0.092365 0.537766
v -0.129304 -0.050128 0.349302
v -0.129304 0.050128 0.349302
v -0.129304 -0.050128 0.572835
v -0.129304 0.050128 0.572835
v -0.175238 -0.046791 0.436377
v -0.175238 0.037560 0.436377
v -0.173994 -0.042176 0.549181
v -0.173994 0.042176 0.549181
v -0.129304 0.026185 0.619074
v -0.129304 0.090672 0.619074
v -0.014928 0.026185 0.619074
v -0.014928 0.090672 0.619074
v -0.100371 0.090672 0.619074
v -0.043861 0.090672 0.619074
v -0.100371 0.026185 0.619074
v -0.043861 0.026185 0.619074
v -0.108061 0.099449 0.676510
v -0.036170 0.099449 0.676510
v -0.108061 0.017409 0.676510
v -0.036170 0.017409 0.676510
v 0.087747 0.129304 0.312840
v -0.049852 0.129304 0.312840
v 0.087747 0.129304 0.570656
v -0.049852 0.129304 0.570656
v 0.037895 0.129304 0.312840
v 0.037895 0.129304 0.570656
v 0.087747 0.172321 0.312840
v 0.087747 0.172321 0.570656
v 0.037895 0.172321 0.312840
v 0.037895 0.172321 0.570656
v 0.062821 0.191024 0.312840
v 0.062821 0.191024 0.570656
v -0.049852 0.129304 0.484026
v 0.037895 0.129304 0.484026
v -0.038635 0.202991 0.329318
v 0.026678 0.202991 0.329318
v -0.038635 0.202991 0.425269
v 0.026678 0.202991 0.425269
vt 0.429668 0.497710
vt 0.481726 0.354194
vt 0.579745 0.365142
vt 0.521707 0.652535
vt 0.500227 0.832366
vt 0.424695 0.792405
vt 0.413592 0.653123
vt 0.372916 0.805298
vt 0.313403 0.647642
vt 0.530699 0.231154
vt 0.613562 0.232896
vt 0.531843 0.669541
vt 0.514084 0.818226
vt 0.583783 0.689558
vt 0.569277 0.811005
vt 0.625232 0.247807
vt 0.597140 0.357663
vt 0.532855 0.523369
vt 0.546105 0.535528
vt 0.536844 0.642826
vt 0.586240 0.381971
vt 0.547471 0.512795
vt 0.670091 0.699867
vt 0.655585 0.821314
vt 0.670091 0.276475
vt 0.649495 0.357016
vt 0.592841 0.552524
vt 0.628992 0.407677
vt 0.597326 0.514534
vt 0.354627 0.845134
vt 0.389999 0.308179
vt 0.486760 0.204205
vt 0.331498 0.468148
vt 0.021617 0.895639
vt 0.059287 0.814703
vt 0.136460 0.805432
vt 0.373671 0.296078
vt 0.487035 0.181739
vt 0.283713 0.648496
vt 0.306413 0.459405
vt 0.698656 0.700101
vt 0.820555 0.663838
vt 0.942131 0.662581
vt 0.138707 0.182155
vt 0.210237 0.145499
vt 0.272247 0.477502
vt 0.055809 0.440587
vt 0.023120 0.406304
vt 0.952965 0.952171
vt 0.913290 0.952171
vt 0.913290 0.836619
vt 0.738623 0.586234
vt 0.698485 0.583183
vt 0.702963 0.423527
vt 0.971395 0.696216
vt 0.942207 0.460904
vt 0.971461 0.427485
vt 0.720863 0.836619
vt 0.913290 0.991846
vt 0.907265 0.991846
vt 0.913290 0.796944
vt 0.681188 0.836619
vt 0.720863 0.952171
vt 0.751595 0.077717
vt 0.952501 0.077717
vt 0.943059 0.099698
vt 0.000200 0.650220
vt 0.035881 0.626617
vt 0.258076 0.627241
vt 0.943059 0.232426
vt 0.783059 0.232426
vt 0.751595 0.254408
vt 0.745300 0.239311
vt 0.745300 0.092813
vt 0.783059 0.099698
vt 0.965970 0.239311
vt 0.240344 0.616166
vt 0.077564 0.608623
vt 0.096250 0.576325
vt 0.399045 0.182396
vt 0.257321 0.076149
vt 0.246947 0.025865
vt 0.266529 0.000200
vt 0.358304 0.234137
vt 0.178488 0.579690
vt 0.096250 0.514833
vt 0.242698 0.484855
vt 0.178488 0.518198
vt 0.059389 0.509036
vt 0.250257 0.509036
vt 0.250256 0.582122
vt 0.697957 0.659080
vt 0.730339 0.658680
vt 0.784740 0.588940
vt 0.818110 0.589766
vt 0.820167 0.656401
vt 0.150747 0.113160
vt 0.109111 0.119466
vt 0.109111 0.060520
vt 0.057457 0.119466
vt 0.057457 0.060520
vt 0.015821 0.066826
vt 0.103585 0.018774
vt 0.062983 0.161212
vt 0.579565 0.189528
vt 0.517322 0.189528
vt 0.517321 0.126482
vt 0.257641 0.678401
vt 0.050880 0.690723
vt 0.053015 0.734868
vt 0.284563 0.784208
vt 0.265251 0.715347
vt 0.579565 0.126482
vt 0.517321 0.095575
vt 0.702561 0.095575
vt 0.517321 0.073184
vt 0.481504 0.019887
vt 0.517321 0.019887
vt 0.517321 0.050794
vt 0.702561 0.019887
vt 0.738379 0.019887
vt 0.738379 0.050794
vt 0.702561 0.050794
vt 0.702561 0.073184
vt 0.531919 0.948949
vt 0.464205 0.940890
vt 0.464205 0.893963
vt 0.395264 0.893963
vt 0.506421 0.994444
vt 0.383425 0.994444
vt 0.395264 0.940890
vt 0.506421 0.840409
vt 0.341013 0.885904
vt 0.586051 0.631190
vt 0.952965 0.836619
vt 0.821263 0.459270
vt 0.681188 0.952171
vt 0.843122 0.991846
vt 0.720863 0.991846
vt 0.720863 0.796944
vt 0.952501 0.254408
vt 0.965970 0.092813
vt 0.213850 0.069732
vt 0.079781 0.481351
vt 0.059389 0.582122
vt 0.787988 0.657709
vt 0.150747 0.066826
vt 0.015821 0.113160
vt 0.062983 0.018774
vt 0.103585 0.161212
vt 0.702561 0.126482
vt 0.481504 0.050794
vt 0.499413 0.064232
vt 0.720470 0.064232
vt 0.531919 0.885903
vt 0.383425 0.840409
vt 0.341013 0.948949
vn -0.000000 -0.977100 0.212900
vn -0.000000 0.967800 0.251800
vn 0.897100 0.000000 0.441900
vn -0.000000 1.000000 0.000000
vn -0.897100 -0.000000 0.441900
vn 0.000000 0.000000 -1.000000
vn 0.000000 -0.946400 -0.322900
vn 0.965800 0.000000 -0.259400
vn -0.965800 0.000000 -0.259400
vn 0.000000 0.963400 -0.268200
vn -1.000000 -0.000000 -0.000000
vn 1.000000 0.000000 0.000000
vn 0.000000 -1.000000 0.000000
vn -0.000000 -0.000000 1.000000
vn 0.313200 -0.949700 0.000000
vn 0.313200 0.949700 0.000000
vn 0.833300 0.000000 0.552800
vn 0.412100 0.000000 -0.911100
vn -0.175200 -0.984500 -0.000000
vn -0.999900 0.000000 0.011000
vn -0.325100 0.945000 -0.035100
vn -0.467800 -0.000000 0.883800
vn -0.884500 0.000000 -0.466600
vn 0.991200 0.000000 -0.132700
vn -0.991200 -0.000000 -0.132700
vn 0.000000 -0.988500 -0.151100
vn 0.000000 0.988500 -0.151100
vn -0.600200 0.799900 0.000000
vn 0.600200 0.799900 0.000000
vn 0.000000 0.623400 0.781900
vn 0.988600 0.150500 0.000000
vn -0.988600 0.150500 -0.000000
vn 0.000000 0.218200 -0.975900
vn 0.004800 -0.999200 0.040800
vn -0.175200 0.984500 0.000000
s off
f 2/1/1 3/2/1 4/3/1
f 5/4/2 8/5/2 7/6/2
f 5/4/3 6/7/3 2/1/3
f 7/6/4 20/8/4 19/9/4
f 3/2/5 7/10/5 8/11/5
f 5/4/6 11/12/6 12/13/6
f 11/12/7 15/14/7 16/15/7
f 8/11/6 12/16/6 10/17/6
f 1/18/6 9/19/6 11/20/6
f 4/3/6 10/21/6 9/22/6
f 13/23/6 14/24/6 16/15/6
f 12/16/8 16/25/8 14/26/8
f 11/20/9 9/19/9 13/27/9
f 10/21/10 14/28/10 13/29/10
f 19/9/6 20/8/6 24/30/6
f 3/2/11 18/31/11 20/32/11
f 6/7/12 19/9/12 17/33/12
f 2/1/13 17/33/13 18/31/13
f 28/34/4 68/35/4 77/36/4
f 18/31/6 22/37/6 24/38/6
f 19/9/6 23/39/6 21/40/6
f 17/33/6 21/40/6 22/37/6
f 28/41/14 32/42/14 31/43/14
f 22/37/11 26/44/11 47/45/11
f 21/40/12 37/46/12 39/47/12
f 21/40/13 25/48/13 26/44/13
f 32/49/4 36/50/4 35/51/4
f 59/52/14 53/53/14 26/54/14
f 27/55/14 31/43/14 29/56/14
f 26/54/14 25/57/14 29/56/14
f 33/58/14 35/51/14 36/50/14
f 36/50/11 32/59/11 56/60/11
f 31/61/12 35/51/12 33/58/12
f 29/62/13 33/58/13 34/63/13
f 39/64/15 37/65/15 41/66/15
f 27/67/12 40/68/12 38/69/12
f 25/48/12 39/47/12 40/68/12
f 23/39/12 38/69/12 37/46/12
f 41/66/12 42/70/12 44/71/12
f 40/72/16 44/71/16 42/70/16
f 40/73/17 39/74/17 43/75/17
f 38/76/18 42/70/18 41/66/18
f 45/77/19 47/78/19 51/79/19
f 24/38/11 46/80/11 48/81/11
f 54/82/11 28/83/11 48/81/11
f 22/37/11 45/84/11 46/80/11
f 49/85/20 51/79/20 52/86/20
f 46/87/21 50/88/21 52/86/21
f 48/89/22 52/86/22 51/79/22
f 46/90/23 45/91/23 49/85/23
f 28/41/14 54/92/14 57/93/14
f 60/94/14 55/95/14 56/96/14
f 53/53/14 59/52/14 57/93/14
f 58/97/24 62/98/24 64/99/24
f 61/100/14 63/101/14 64/99/14
f 59/102/25 63/101/25 61/100/25
f 60/103/26 64/99/26 63/101/26
f 57/104/27 61/100/27 62/98/27
f 77/105/4 68/106/4 70/107/4
f 27/67/4 23/39/4 65/108/4
f 27/67/4 67/109/4 70/110/4
f 24/30/4 66/111/4 69/112/4
f 78/113/11 70/107/11 74/114/11
f 73/115/28 74/114/28 76/116/28
f 70/117/14 67/118/14 72/119/14
f 65/120/6 69/121/6 73/122/6
f 65/120/12 71/123/12 72/119/12
f 75/124/29 76/116/29 72/119/29
f 78/125/30 82/126/30 81/127/30
f 79/128/4 81/127/4 82/126/4
f 78/129/31 69/130/31 80/131/31
f 77/132/32 81/127/32 79/128/32
f 66/133/33 79/128/33 80/131/33
f 1/18/1 2/1/1 4/3/1
f 6/7/2 5/4/2 7/6/2
f 1/18/3 5/4/3 2/1/3
f 6/7/4 7/6/4 19/9/4
f 4/3/5 3/2/5 8/11/5
f 8/5/6 5/4/6 12/13/6
f 12/13/7 11/12/7 16/15/7
f 4/3/6 8/11/6 10/17/6
f 5/4/6 1/18/6 11/20/6
f 1/18/6 4/3/6 9/22/6
f 15/14/6 13/23/6 16/15/6
f 10/17/8 12/16/8 14/26/8
f 15/134/9 11/20/9 13/27/9
f 9/22/10 10/21/10 13/29/10
f 23/39/6 19/9/6 24/30/6
f 7/10/11 3/2/11 20/32/11
f 2/1/12 6/7/12 17/33/12
f 3/2/13 2/1/13 18/31/13
f 77/36/4 66/111/4 24/30/4
f 20/32/6 18/31/6 24/38/6
f 24/30/4 28/34/4 77/36/4
f 17/33/6 19/9/6 21/40/6
f 18/31/6 17/33/6 22/37/6
f 27/55/14 28/41/14 31/43/14
f 45/84/11 22/37/11 47/45/11
f 25/48/12 21/40/12 39/47/12
f 22/37/13 21/40/13 26/44/13
f 31/135/4 32/49/4 35/51/4
f 30/136/14 26/54/14 29/56/14
f 30/136/14 55/95/14 60/94/14
f 30/136/14 59/52/14 26/54/14
f 25/57/14 27/55/14 29/56/14
f 30/136/14 60/94/14 59/52/14
f 34/63/14 33/58/14 36/50/14
f 30/137/13 29/62/13 34/63/13
f 55/138/11 30/139/11 34/63/11
f 55/138/11 36/50/11 56/60/11
f 29/140/12 31/61/12 33/58/12
f 55/138/11 34/63/11 36/50/11
f 43/75/15 39/64/15 41/66/15
f 23/39/12 27/67/12 38/69/12
f 27/67/12 25/48/12 40/68/12
f 21/40/12 23/39/12 37/46/12
f 43/75/12 41/66/12 44/71/12
f 38/141/16 40/72/16 42/70/16
f 44/71/17 40/73/17 43/75/17
f 37/142/18 38/76/18 41/66/18
f 49/85/34 45/77/34 51/79/34
f 28/83/11 24/38/11 48/81/11
f 26/44/11 53/143/11 47/45/11
f 24/38/11 22/37/11 46/80/11
f 54/82/11 48/81/11 53/143/11
f 53/143/11 48/81/11 47/45/11
f 50/88/20 49/85/20 52/86/20
f 48/144/35 46/87/35 52/86/35
f 47/145/22 48/89/22 51/79/22
f 50/88/23 46/90/23 49/85/23
f 28/41/14 58/146/14 32/42/14
f 54/92/14 53/53/14 57/93/14
f 58/146/14 60/94/14 56/96/14
f 58/146/14 56/96/14 32/42/14
f 28/41/14 57/93/14 58/146/14
f 60/147/24 58/97/24 64/99/24
f 62/98/14 61/100/14 64/99/14
f 57/148/25 59/102/25 61/100/25
f 59/149/26 60/103/26 63/101/26
f 58/150/27 57/104/27 62/98/27
f 78/113/4 77/105/4 70/107/4
f 67/109/4 27/67/4 65/108/4
f 70/110/4 68/35/4 28/34/4
f 69/112/4 65/108/4 23/39/4
f 28/34/4 27/67/4 70/110/4
f 69/151/11 78/113/11 73/115/11
f 23/39/4 24/30/4 69/112/4
f 75/124/28 73/115/28 76/116/28
f 70/117/14 72/119/14 74/152/14
f 78/113/11 74/114/11 73/115/11
f 71/123/29 75/124/29 72/119/29
f 72/119/14 76/153/14 74/152/14
f 65/120/6 73/122/6 71/123/6
f 73/122/6 75/154/6 71/123/6
f 67/118/12 65/120/12 72/119/12
f 77/155/30 78/125/30 81/127/30
f 80/131/4 79/128/4 82/126/4
f 82/126/31 78/129/31 80/131/31
f 66/156/32 77/132/32 79/128/32
f 69/157/33 66/133/33 80/131/33
