# Blender v2.72 (sub 0) OBJ File: 'DirectLight.blend'
# www.blender.org
mtllib DirectionalLight.mtl
o Cylinder
v -0.000000 -0.967368 -0.189693
v -0.000000 -0.085522 -0.355435
v 0.094847 -0.967368 -0.164279
v 0.177718 -0.085522 -0.307816
v 0.164279 -0.967368 -0.094846
v 0.307816 -0.085522 -0.177718
v 0.189693 -0.967368 0.000000
v 0.355435 -0.085522 0.000000
v 0.164279 -0.967368 0.094847
v 0.307816 -0.085522 0.177718
v 0.094847 -0.967368 0.164279
v 0.177718 -0.085522 0.307816
v 0.000000 -0.967368 0.189693
v 0.000000 -0.085522 0.355436
v -0.094847 -0.967368 0.164279
v -0.177718 -0.085522 0.307816
v -0.164279 -0.967368 0.094847
v -0.307816 -0.085522 0.177718
v -0.189693 -0.967368 0.000000
v -0.355436 -0.085522 0.000000
v -0.164279 -0.967368 -0.094846
v -0.307816 -0.085522 -0.177717
v -0.094847 -0.967368 -0.164279
v -0.177718 -0.085522 -0.307816
v -0.000000 -0.090609 -0.189693
v 0.094847 -0.090609 -0.164279
v 0.164279 -0.090609 -0.094846
v 0.189693 -0.090609 0.000000
v 0.164279 -0.090609 0.094847
v 0.094847 -0.090609 0.164279
v 0.000000 -0.090609 0.189693
v -0.094847 -0.090609 0.164279
v -0.164279 -0.090609 0.094847
v -0.189693 -0.090609 0.000000
v -0.164279 -0.090609 -0.094846
v -0.094847 -0.090609 -0.164279
v -0.000000 -0.000072 -0.351344
v 0.175672 -0.000072 -0.304273
v 0.304273 -0.000072 -0.175672
v 0.351344 -0.000072 0.000000
v 0.304273 -0.000072 0.175672
v 0.175672 -0.000072 0.304273
v 0.000000 -0.000072 0.351344
v -0.175672 -0.000072 0.304273
v -0.304273 -0.000072 0.175672
v -0.351344 -0.000072 0.000000
v -0.304273 -0.000072 -0.175672
v -0.175672 -0.000072 -0.304273
v -0.000000 0.624195 0.000000
v -0.000000 -0.967368 -0.189693
v 0.094847 -0.967368 -0.164279
v 0.177718 -0.085522 -0.307816
v -0.000000 -0.085522 -0.355435
v 0.164279 -0.967368 -0.094846
v 0.307816 -0.085522 -0.177718
v 0.189693 -0.967368 0.000000
v 0.355435 -0.085522 0.000000
v 0.164279 -0.967368 0.094847
v 0.307816 -0.085522 0.177718
v 0.094847 -0.967368 0.164279
v 0.177718 -0.085522 0.307816
v 0.000000 -0.967368 0.189693
v 0.000000 -0.085522 0.355436
v -0.094847 -0.967368 0.164279
v -0.177718 -0.085522 0.307816
v -0.164279 -0.967368 0.094847
v -0.307816 -0.085522 0.177718
v -0.189693 -0.967368 0.000000
v -0.355436 -0.085522 0.000000
v -0.164279 -0.967368 -0.094846
v -0.307816 -0.085522 -0.177717
v -0.094847 -0.967368 -0.164279
v -0.177718 -0.085522 -0.307816
v -0.000000 -0.090609 -0.189693
v 0.094847 -0.090609 -0.164279
v 0.164279 -0.090609 -0.094846
v 0.189693 -0.090609 0.000000
v 0.164279 -0.090609 0.094847
v 0.094847 -0.090609 0.164279
v 0.000000 -0.090609 0.189693
v -0.094847 -0.090609 0.164279
v -0.164279 -0.090609 0.094847
v -0.189693 -0.090609 0.000000
v -0.164279 -0.090609 -0.094846
v -0.094847 -0.090609 -0.164279
v 0.175672 -0.000072 -0.304273
v -0.000000 -0.000072 -0.351344
v 0.304273 -0.000072 -0.175672
v 0.351344 -0.000072 0.000000
v 0.304273 -0.000072 0.175672
v 0.175672 -0.000072 0.304273
v 0.000000 -0.000072 0.351344
v -0.175672 -0.000072 0.304273
v -0.304273 -0.000072 0.175672
v -0.351344 -0.000072 0.000000
v -0.304273 -0.000072 -0.175672
v -0.175672 -0.000072 -0.304273
vt 0.251724 0.820527
vt 0.288666 0.834263
vt 0.245306 0.912551
vt 0.324862 0.855318
vt 0.265421 0.927860
vt 0.360585 0.884363
vt 0.283254 0.947284
vt 0.402688 0.922734
vt 0.297609 0.970837
vt 0.018378 0.906021
vt 0.042093 0.882399
vt 0.091479 0.924754
vt 0.062964 0.862000
vt 0.104988 0.912856
vt 0.086830 0.843798
vt 0.120860 0.903223
vt 0.114369 0.828989
vt 0.145324 0.818515
vt 0.158689 0.892077
vt 0.179090 0.813176
vt 0.583628 0.074652
vt 0.582665 0.035777
vt 0.665280 0.032708
vt 0.214868 0.813656
vt 0.223820 0.901413
vt 0.201758 0.894407
vt 0.096269 0.919979
vt 0.072979 0.879639
vt 0.136610 0.943270
vt 0.655788 0.987586
vt 0.613846 0.987586
vt 0.613846 0.731587
vt 0.571905 0.987586
vt 0.571905 0.731587
vt 0.529963 0.987586
vt 0.529963 0.731587
vt 0.488022 0.987586
vt 0.488022 0.731587
vt 0.991319 0.731586
vt 0.991320 0.987585
vt 0.949378 0.987585
vt 0.907437 0.987585
vt 0.907436 0.731586
vt 0.865495 0.987585
vt 0.865495 0.731586
vt 0.823554 0.987585
vt 0.781612 0.987586
vt 0.781612 0.731586
vt 0.739671 0.987586
vt 0.697729 0.987586
vt 0.655787 0.731587
vt 0.697729 0.731586
vt 0.404989 0.259459
vt 0.228221 0.212094
vt 0.404989 0.164729
vt 0.500000 0.075688
vt 0.500000 0.036800
vt 0.416373 0.074652
vt 0.417336 0.035777
vt 0.332797 0.071548
vt 0.334721 0.032708
vt 0.249323 0.066375
vt 0.252209 0.027594
vt 0.166003 0.059137
vt 0.169847 0.020440
vt 0.082887 0.049839
vt 0.087689 0.011249
vt 0.000028 0.038487
vt 0.005783 0.000028
vt 0.917113 0.049839
vt 0.912312 0.011249
vt 0.994217 0.000028
vt 0.833998 0.059137
vt 0.830153 0.020440
vt 0.750678 0.066375
vt 0.747792 0.027594
vt 0.667204 0.071547
vt 0.357624 0.341497
vt 0.275586 0.388862
vt 0.180856 0.388862
vt 0.098817 0.341497
vt 0.051452 0.259459
vt 0.051452 0.164729
vt 0.098817 0.082690
vt 0.180856 0.035325
vt 0.275586 0.035325
vt 0.357624 0.082690
vt 0.081876 0.938144
vt 0.138878 0.896158
vt 0.179835 0.891380
vt 0.136610 0.769427
vt 0.183190 0.943270
vt 0.096269 0.792718
vt 0.072979 0.833058
vt 0.246821 0.879639
vt 0.223531 0.919979
vt 0.223531 0.792718
vt 0.246821 0.833058
vt 0.183191 0.769427
vt 0.949378 0.731586
vt 0.823553 0.731586
vt 0.739670 0.731586
vt 0.999973 0.038487
vn -0.000000 -0.999500 -0.030700
vn 0.015300 -0.999500 -0.026600
vn 0.026600 -0.999500 -0.015300
vn 0.030700 -0.999500 -0.000000
vn 0.026600 -0.999500 0.015300
vn 0.015300 -0.999500 0.026600
vn 0.000000 -0.999500 0.030700
vn -0.015300 -0.999500 0.026600
vn -0.026600 -0.999500 0.015300
vn -0.030700 -0.999500 0.000000
vn -0.026600 -0.999500 -0.015300
vn -0.499400 0.047800 -0.865000
vn -0.000000 0.047800 -0.998900
vn -0.015300 -0.999500 -0.026600
vn 0.000000 -1.000000 -0.000000
vn 0.000000 0.000000 -1.000000
vn 0.500000 0.000000 -0.866000
vn 0.866000 0.000000 -0.500000
vn 1.000000 0.000000 0.000000
vn 0.866000 0.000000 0.500000
vn 0.500000 0.000000 0.866000
vn -0.000000 0.000000 1.000000
vn -0.500000 0.000000 0.866000
vn -0.866000 0.000000 0.500000
vn -1.000000 0.000000 0.000000
vn -0.866000 0.000000 -0.500000
vn -0.500000 0.000000 -0.866000
vn 0.754700 0.490500 -0.435700
vn 0.000000 1.000000 0.000000
vn 0.871500 0.490500 -0.000000
vn -0.865000 0.047800 -0.499400
vn -0.998900 0.047800 0.000000
vn -0.865000 0.047800 0.499400
vn -0.499400 0.047800 0.865000
vn 0.000000 0.047800 0.998900
vn 0.499400 0.047800 0.865000
vn 0.865000 0.047800 0.499400
vn 0.998900 0.047800 0.000000
vn 0.865000 0.047800 -0.499400
vn 0.499400 0.047800 -0.865000
vn 0.435700 0.490500 -0.754700
vn -0.000000 0.490500 -0.871500
vn -0.435700 0.490500 -0.754700
vn -0.754700 0.490500 -0.435700
vn -0.871500 0.490500 0.000000
vn -0.754700 0.490500 0.435700
vn -0.435700 0.490500 0.754700
vn 0.000000 0.490500 0.871500
vn 0.435700 0.490500 0.754700
vn 0.754700 0.490500 0.435700
g Cylinder_Cylinder_None
usemtl None
s 1
f 2/1/1 4/2/2 75/3/2
f 4/2/2 6/4/3 76/5/3
f 6/4/3 8/6/4 77/7/4
f 8/6/4 10/8/5 78/9/5
f 10/10/5 12/11/6 79/12/6
f 12/11/6 14/13/7 80/14/7
f 14/13/7 16/15/8 81/16/8
f 81/16/8 16/15/8 18/17/9
f 18/17/9 20/18/10 83/19/10
f 83/19/10 20/18/10 22/20/11
f 73/21/12 48/22/12 37/23/13
f 24/24/14 2/1/1 25/25/1
f 22/20/11 24/24/14 85/26/14
f 17/27/15 19/28/15 15/29/15
f 74/30/16 26/31/17 51/32/17
f 26/31/17 27/33/18 54/34/18
f 27/33/18 28/35/19 56/36/19
f 28/35/19 29/37/20 58/38/20
f 58/39/20 29/40/20 30/41/21
f 30/41/21 31/42/22 62/43/22
f 31/42/22 32/44/23 64/45/23
f 64/45/23 32/44/23 33/46/24
f 33/46/24 34/47/25 68/48/25
f 68/48/25 34/47/25 35/49/26
f 36/50/27 74/30/16 50/51/16
f 35/49/26 36/50/27 72/52/27
f 88/53/28 49/54/29 40/55/30
f 71/56/31 47/57/31 48/22/12
f 69/58/32 46/59/32 47/57/31
f 69/58/32 67/60/33 45/61/33
f 65/62/34 44/63/34 45/61/33
f 63/64/35 43/65/35 44/63/34
f 61/66/36 42/67/36 43/65/35
f 59/68/37 41/69/37 42/67/36
f 57/70/38 89/71/38 41/72/37
f 55/73/39 39/74/39 89/71/38
f 55/73/39 52/75/40 38/76/40
f 53/77/13 37/23/13 38/76/40
f 86/78/41 49/54/29 88/53/28
f 87/79/42 49/54/29 86/78/41
f 97/80/43 49/54/29 87/79/42
f 96/81/44 49/54/29 97/80/43
f 95/82/45 49/54/29 96/81/44
f 94/83/46 93/84/47 49/54/29
f 95/82/45 94/83/46 49/54/29
f 92/85/48 91/86/49 49/54/29
f 40/55/30 49/54/29 90/87/50
f 90/87/50 49/54/29 91/86/49
f 92/85/48 49/54/29 93/84/47
f 25/25/1 2/1/1 75/3/2
f 75/3/2 4/2/2 76/5/3
f 76/5/3 6/4/3 77/7/4
f 77/7/4 8/6/4 78/9/5
f 78/88/5 10/10/5 79/12/6
f 79/12/6 12/11/6 80/14/7
f 80/14/7 14/13/7 81/16/8
f 82/89/9 81/16/8 18/17/9
f 82/89/9 18/17/9 83/19/10
f 84/90/11 83/19/10 22/20/11
f 53/77/13 73/21/12 37/23/13
f 85/26/14 24/24/14 25/25/1
f 84/90/11 22/20/11 85/26/14
f 19/28/15 1/91/15 13/92/15
f 23/93/15 1/91/15 21/94/15
f 50/51/16 74/30/16 51/32/17
f 9/95/15 11/96/15 13/92/15
f 5/97/15 7/98/15 9/95/15
f 1/91/15 3/99/15 5/97/15
f 1/91/15 19/28/15 21/94/15
f 51/32/17 26/31/17 54/34/18
f 1/91/15 5/97/15 9/95/15
f 15/29/15 19/28/15 13/92/15
f 1/91/15 9/95/15 13/92/15
f 54/34/18 27/33/18 56/36/19
f 56/36/19 28/35/19 58/38/20
f 60/100/21 58/39/20 30/41/21
f 60/100/21 30/41/21 62/43/22
f 62/43/22 31/42/22 64/45/23
f 66/101/24 64/45/23 33/46/24
f 66/101/24 33/46/24 68/48/25
f 70/102/26 68/48/25 35/49/26
f 72/52/27 36/50/27 50/51/16
f 70/102/26 35/49/26 72/52/27
f 73/21/12 71/56/31 48/22/12
f 71/56/31 69/58/32 47/57/31
f 46/59/32 69/58/32 45/61/33
f 67/60/33 65/62/34 45/61/33
f 65/62/34 63/64/35 44/63/34
f 63/64/35 61/66/36 43/65/35
f 61/66/36 59/68/37 42/67/36
f 59/103/37 57/70/38 41/72/37
f 57/70/38 55/73/39 89/71/38
f 39/74/39 55/73/39 38/76/40
f 52/75/40 53/77/13 38/76/40
