# Blender v2.72 (sub 0) OBJ File: 'Eddy.blend'
# www.blender.org
o Icosphere.004_Icosphere.001
v 0.006373 -0.270242 -0.477258
v 0.583511 0.032963 0.098453
v 0.609797 0.060602 0.145002
v 0.626043 0.060602 0.080673
v 0.583511 0.060602 0.040915
v 0.540978 0.060602 0.080673
v 0.557224 0.060602 0.145002
v 0.626043 0.105324 0.116233
v 0.609797 0.105324 0.051904
v 0.557224 0.105324 0.051904
v 0.540978 0.105324 0.116233
v 0.583511 0.105324 0.155991
v 0.583511 0.132963 0.098453
v 0.608510 0.040430 0.088003
v 0.598961 0.040430 0.125814
v 0.623961 0.056676 0.115363
v 0.583511 0.056676 0.153175
v 0.568060 0.040430 0.125814
v 0.583511 0.040430 0.064633
v 0.608510 0.056676 0.054183
v 0.558511 0.040430 0.088003
v 0.558511 0.056676 0.054183
v 0.543060 0.056676 0.115363
v 0.598961 0.082963 0.159634
v 0.568060 0.082963 0.159634
v 0.633511 0.082963 0.098453
v 0.623961 0.082963 0.136265
v 0.598961 0.082963 0.037272
v 0.623961 0.082963 0.060641
v 0.543060 0.082963 0.060641
v 0.568060 0.082963 0.037272
v 0.543060 0.082963 0.136265
v 0.533511 0.082963 0.098453
v 0.608510 0.109250 0.142724
v 0.623961 0.109250 0.081543
v 0.583511 0.109250 0.043732
v 0.543060 0.109250 0.081543
v 0.558511 0.109250 0.142724
v 0.608510 0.125496 0.108904
v 0.583511 0.125495 0.132273
v 0.598961 0.125495 0.071093
v 0.568060 0.125495 0.071093
v 0.558511 0.125496 0.108904
v 0.583511 -0.130562 0.098453
v 0.609797 -0.102923 0.145002
v 0.626043 -0.102923 0.080673
v 0.583511 -0.102923 0.040915
v 0.540978 -0.102923 0.080673
v 0.557224 -0.102923 0.145002
v 0.626043 -0.058201 0.116233
v 0.609797 -0.058201 0.051904
v 0.557224 -0.058201 0.051904
v 0.540978 -0.058201 0.116233
v 0.583511 -0.058202 0.155991
v 0.583511 -0.030562 0.098453
v 0.608510 -0.123095 0.088003
v 0.598961 -0.123095 0.125814
v 0.623961 -0.106849 0.115363
v 0.583511 -0.106849 0.153175
v 0.568060 -0.123095 0.125814
v 0.583511 -0.123095 0.064633
v 0.608510 -0.106849 0.054183
v 0.558511 -0.123095 0.088003
v 0.558511 -0.106849 0.054183
v 0.543060 -0.106849 0.115363
v 0.598961 -0.080562 0.159634
v 0.568060 -0.080562 0.159634
v 0.633511 -0.080562 0.098453
v 0.623961 -0.080562 0.136265
v 0.598961 -0.080562 0.037272
v 0.623961 -0.080562 0.060641
v 0.543060 -0.080562 0.060641
v 0.568060 -0.080562 0.037272
v 0.543060 -0.080562 0.136265
v 0.533511 -0.080562 0.098453
v 0.608510 -0.054276 0.142724
v 0.623961 -0.054275 0.081543
v 0.583511 -0.054276 0.043732
v 0.543060 -0.054275 0.081543
v 0.558511 -0.054276 0.142724
v 0.608510 -0.038030 0.108904
v 0.583511 -0.038030 0.132273
v 0.598961 -0.038030 0.071093
v 0.568060 -0.038030 0.071093
v 0.558511 -0.038030 0.108904
v 0.583511 -0.051962 0.098453
v 0.609797 -0.024323 0.145002
v 0.626043 -0.024323 0.080673
v 0.583511 -0.024323 0.040915
v 0.540978 -0.024323 0.080673
v 0.557224 -0.024323 0.145002
v 0.626043 0.020399 0.116233
v 0.609797 0.020399 0.051904
v 0.557224 0.020399 0.051904
v 0.540978 0.020399 0.116233
v 0.583511 0.020399 0.155991
v 0.583511 0.048038 0.098453
v 0.608510 -0.044495 0.088003
v 0.598961 -0.044495 0.125814
v 0.623961 -0.028249 0.115363
v 0.583511 -0.028249 0.153175
v 0.568060 -0.044495 0.125814
v 0.583511 -0.044494 0.064633
v 0.608510 -0.028249 0.054183
v 0.558511 -0.044495 0.088003
v 0.558511 -0.028249 0.054183
v 0.543060 -0.028249 0.115363
v 0.598961 -0.001962 0.159634
v 0.568060 -0.001962 0.159634
v 0.633511 -0.001962 0.098453
v 0.623961 -0.001962 0.136265
v 0.598961 -0.001962 0.037272
v 0.623961 -0.001962 0.060641
v 0.543060 -0.001962 0.060641
v 0.568060 -0.001962 0.037272
v 0.543060 -0.001962 0.136265
v 0.533511 -0.001962 0.098453
v 0.608510 0.024325 0.142724
v 0.623961 0.024325 0.081543
v 0.583511 0.024325 0.043732
v 0.543060 0.024325 0.081543
v 0.558511 0.024325 0.142724
v 0.608510 0.040571 0.108904
v 0.583511 0.040571 0.132273
v 0.598961 0.040571 0.071093
v 0.568060 0.040571 0.071093
v 0.558511 0.040571 0.108904
v 0.497605 -0.140580 -0.003717
v 0.576464 -0.057663 0.104824
v 0.625203 -0.057663 -0.045175
v 0.497605 -0.057662 -0.137881
v 0.370008 -0.057663 -0.045175
v 0.418747 -0.057663 0.104824
v 0.625203 0.076503 0.037741
v 0.576464 0.076503 -0.112258
v 0.418747 0.076503 -0.112258
v 0.370008 0.076503 0.037741
v 0.497605 0.076503 0.130447
v 0.497605 0.159420 -0.003717
v 0.572605 -0.118178 -0.028086
v 0.543957 -0.118178 0.060081
v 0.618957 -0.069440 0.035713
v 0.497605 -0.069440 0.123880
v 0.451254 -0.118178 0.060081
v 0.497605 -0.118177 -0.082577
v 0.572605 -0.069440 -0.106946
v 0.422606 -0.118178 -0.028086
v 0.422606 -0.069440 -0.106946
v 0.376254 -0.069440 0.035713
v 0.543957 0.009420 0.138941
v 0.451253 0.009420 0.138941
v 0.647605 0.009420 -0.003717
v 0.618958 0.009420 0.084451
v 0.543957 0.009420 -0.146376
v 0.618958 0.009420 -0.091885
v 0.376253 0.009420 -0.091885
v 0.451253 0.009420 -0.146376
v 0.376253 0.009420 0.084451
v 0.347605 0.009420 -0.003717
v 0.572605 0.088281 0.099511
v 0.618957 0.088281 -0.043148
v 0.497605 0.088281 -0.131314
v 0.376254 0.088281 -0.043148
v 0.422606 0.088281 0.099511
v 0.572605 0.137018 0.020651
v 0.497605 0.137018 0.075142
v 0.543957 0.137018 -0.067516
v 0.451254 0.137018 -0.067516
v 0.422606 0.137018 0.020651
v 0.475213 0.013015 0.116910
v 0.501499 0.040654 0.163459
v 0.517746 0.040654 0.099130
v 0.475213 0.040655 0.059372
v 0.432681 0.040654 0.099130
v 0.448927 0.040654 0.163459
v 0.517746 0.085376 0.134690
v 0.501499 0.085376 0.070361
v 0.448927 0.085376 0.070361
v 0.432681 0.085376 0.134690
v 0.475213 0.085376 0.174448
v 0.475213 0.113015 0.116910
v 0.500213 0.020483 0.106459
v 0.490664 0.020483 0.144271
v 0.515664 0.036729 0.133820
v 0.475213 0.036729 0.171631
v 0.459763 0.020483 0.144271
v 0.475213 0.020483 0.083090
v 0.500213 0.036729 0.072639
v 0.450214 0.020483 0.106459
v 0.450213 0.036729 0.072639
v 0.434763 0.036729 0.133820
v 0.490664 0.063015 0.178091
v 0.459763 0.063015 0.178091
v 0.525213 0.063015 0.116910
v 0.515664 0.063015 0.154722
v 0.490664 0.063015 0.055729
v 0.515664 0.063015 0.079098
v 0.434762 0.063015 0.079098
v 0.459763 0.063015 0.055729
v 0.434762 0.063015 0.154722
v 0.425213 0.063015 0.116910
v 0.500213 0.089302 0.161181
v 0.515664 0.089302 0.100000
v 0.475213 0.089302 0.062188
v 0.434763 0.089302 0.100000
v 0.450213 0.089302 0.161181
v 0.500213 0.105548 0.127361
v 0.475213 0.105548 0.150730
v 0.490664 0.105548 0.089549
v 0.459763 0.105548 0.089549
v 0.450214 0.105548 0.127361
vt 0.000000 0.000000
vn 0.000000 -1.000000 0.000900
vn 0.501800 -0.854700 -0.133100
vn 0.316800 -0.878700 0.356900
vn 0.578600 -0.492400 0.650200
vn 0.000000 -0.597200 0.802000
vn 0.000000 -0.894200 -0.447700
vn -0.501800 -0.854700 -0.133100
vn -0.316800 -0.878700 0.356900
vn 0.364000 -0.002400 0.931400
vn 0.862200 -0.452700 -0.227200
vn 1.000000 0.000000 0.000000
vn 0.819200 -0.531700 0.214900
vn 0.000000 -0.519700 -0.854300
vn 0.364000 0.002400 -0.931400
vn 0.547100 -0.570400 -0.612600
vn -0.862200 -0.452700 -0.227200
vn -0.859500 -0.002800 -0.511100
vn -0.547100 -0.570400 -0.612600
vn -0.578600 -0.492400 0.650200
vn -0.859500 0.002800 0.511100
vn -0.819200 -0.531700 0.214900
vn 0.859500 0.002800 0.511100
vn 0.859500 -0.002800 -0.511100
vn -0.364000 0.002400 -0.931400
vn -1.000000 0.000000 0.000000
vn -0.364000 -0.002400 0.931400
vn 0.862200 0.452700 0.227200
vn 0.501800 0.854700 0.133100
vn 0.547100 0.570400 0.612600
vn 0.578600 0.492400 -0.650200
vn 0.316800 0.878700 -0.356900
vn 0.819200 0.531700 -0.214900
vn -0.578600 0.492400 -0.650200
vn -0.316800 0.878700 -0.356900
vn 0.000000 0.597200 -0.802000
vn -0.862200 0.452700 0.227200
vn -0.501800 0.854700 0.133100
vn -0.819200 0.531700 -0.214900
vn 0.000000 0.519700 0.854300
vn 0.000000 0.894200 0.447700
vn -0.547100 0.570400 0.612600
vn 0.000000 1.000000 -0.000900
vn 0.000000 -1.000000 0.000000
vn 0.500000 -0.850600 -0.162500
vn 0.309000 -0.850600 0.425300
vn 0.525700 -0.447200 0.723600
vn 0.000000 -0.525700 0.850600
vn 0.000000 -0.850600 -0.525700
vn -0.500000 -0.850600 -0.162500
vn -0.309000 -0.850600 0.425300
vn 0.309000 0.000000 0.951000
vn 0.850600 -0.447200 -0.276400
vn 0.809000 -0.525700 0.262900
vn 0.000000 -0.447200 -0.894400
vn 0.309000 0.000000 -0.951000
vn 0.500000 -0.525700 -0.688200
vn -0.850600 -0.447200 -0.276400
vn -0.809000 0.000000 -0.587800
vn -0.500000 -0.525700 -0.688200
vn -0.525700 -0.447200 0.723600
vn -0.809000 0.000000 0.587800
vn -0.809000 -0.525700 0.262900
vn 0.809000 0.000000 0.587800
vn 0.809000 0.000000 -0.587800
vn -0.309000 0.000000 -0.951000
vn -0.309000 0.000000 0.951000
vn 0.850600 0.447200 0.276400
vn 0.500000 0.850600 0.162500
vn 0.500000 0.525700 0.688200
vn 0.525700 0.447200 -0.723600
vn 0.309000 0.850600 -0.425300
vn 0.809000 0.525700 -0.262900
vn -0.525700 0.447200 -0.723600
vn -0.309000 0.850600 -0.425300
vn 0.000000 0.525700 -0.850600
vn -0.850600 0.447200 0.276400
vn -0.500000 0.850600 0.162500
vn -0.809000 0.525700 -0.262900
vn 0.000000 0.447200 0.894400
vn 0.000000 0.850600 0.525700
vn -0.500000 0.525700 0.688200
vn 0.000000 1.000000 0.000000
s 1
f 2/1/1 14/1/2 15/1/3
f 3/1/4 17/1/5 15/1/3
f 2/1/1 19/1/6 14/1/2
f 2/1/1 21/1/7 19/1/6
f 2/1/1 18/1/8 21/1/7
f 3/1/4 24/1/9 17/1/5
f 4/1/10 26/1/11 16/1/12
f 5/1/13 28/1/14 20/1/15
f 6/1/16 30/1/17 22/1/18
f 7/1/19 32/1/20 23/1/21
f 3/1/4 27/1/22 24/1/9
f 4/1/10 29/1/23 26/1/11
f 5/1/13 31/1/24 28/1/14
f 6/1/16 33/1/25 30/1/17
f 7/1/19 25/1/26 32/1/20
f 8/1/27 39/1/28 34/1/29
f 9/1/30 41/1/31 35/1/32
f 10/1/33 42/1/34 36/1/35
f 11/1/36 43/1/37 37/1/38
f 12/1/39 40/1/40 38/1/41
f 14/1/2 4/1/10 16/1/12
f 14/1/2 16/1/12 15/1/3
f 15/1/3 16/1/12 3/1/4
f 17/1/5 7/1/19 18/1/8
f 17/1/5 18/1/8 15/1/3
f 15/1/3 18/1/8 2/1/1
f 19/1/6 5/1/13 20/1/15
f 19/1/6 20/1/15 14/1/2
f 14/1/2 20/1/15 4/1/10
f 21/1/7 6/1/16 22/1/18
f 21/1/7 22/1/18 19/1/6
f 19/1/6 22/1/18 5/1/13
f 18/1/8 7/1/19 23/1/21
f 18/1/8 23/1/21 21/1/7
f 21/1/7 23/1/21 6/1/16
f 24/1/9 12/1/39 25/1/26
f 24/1/9 25/1/26 17/1/5
f 17/1/5 25/1/26 7/1/19
f 26/1/11 8/1/27 27/1/22
f 26/1/11 27/1/22 16/1/12
f 16/1/12 27/1/22 3/1/4
f 28/1/14 9/1/30 29/1/23
f 28/1/14 29/1/23 20/1/15
f 20/1/15 29/1/23 4/1/10
f 30/1/17 10/1/33 31/1/24
f 30/1/17 31/1/24 22/1/18
f 22/1/18 31/1/24 5/1/13
f 32/1/20 11/1/36 33/1/25
f 32/1/20 33/1/25 23/1/21
f 23/1/21 33/1/25 6/1/16
f 27/1/22 8/1/27 34/1/29
f 27/1/22 34/1/29 24/1/9
f 24/1/9 34/1/29 12/1/39
f 29/1/23 9/1/30 35/1/32
f 29/1/23 35/1/32 26/1/11
f 26/1/11 35/1/32 8/1/27
f 31/1/24 10/1/33 36/1/35
f 31/1/24 36/1/35 28/1/14
f 28/1/14 36/1/35 9/1/30
f 33/1/25 11/1/36 37/1/38
f 33/1/25 37/1/38 30/1/17
f 30/1/17 37/1/38 10/1/33
f 25/1/26 12/1/39 38/1/41
f 25/1/26 38/1/41 32/1/20
f 32/1/20 38/1/41 11/1/36
f 39/1/28 13/1/42 40/1/40
f 39/1/28 40/1/40 34/1/29
f 34/1/29 40/1/40 12/1/39
f 41/1/31 13/1/42 39/1/28
f 41/1/31 39/1/28 35/1/32
f 35/1/32 39/1/28 8/1/27
f 42/1/34 13/1/42 41/1/31
f 42/1/34 41/1/31 36/1/35
f 36/1/35 41/1/31 9/1/30
f 43/1/37 13/1/42 42/1/34
f 43/1/37 42/1/34 37/1/38
f 37/1/38 42/1/34 10/1/33
f 40/1/40 13/1/42 43/1/37
f 40/1/40 43/1/37 38/1/41
f 38/1/41 43/1/37 11/1/36
f 44/1/1 56/1/2 57/1/3
f 45/1/4 59/1/5 57/1/3
f 44/1/1 61/1/6 56/1/2
f 44/1/1 63/1/7 61/1/6
f 44/1/1 60/1/8 63/1/7
f 45/1/4 66/1/9 59/1/5
f 46/1/10 68/1/11 58/1/12
f 47/1/13 70/1/14 62/1/15
f 48/1/16 72/1/17 64/1/18
f 49/1/19 74/1/20 65/1/21
f 45/1/4 69/1/22 66/1/9
f 46/1/10 71/1/23 68/1/11
f 47/1/13 73/1/24 70/1/14
f 48/1/16 75/1/25 72/1/17
f 49/1/19 67/1/26 74/1/20
f 50/1/27 81/1/28 76/1/29
f 51/1/30 83/1/31 77/1/32
f 52/1/33 84/1/34 78/1/35
f 53/1/36 85/1/37 79/1/38
f 54/1/39 82/1/40 80/1/41
f 56/1/2 46/1/10 58/1/12
f 56/1/2 58/1/12 57/1/3
f 57/1/3 58/1/12 45/1/4
f 59/1/5 49/1/19 60/1/8
f 59/1/5 60/1/8 57/1/3
f 57/1/3 60/1/8 44/1/1
f 61/1/6 47/1/13 62/1/15
f 61/1/6 62/1/15 56/1/2
f 56/1/2 62/1/15 46/1/10
f 63/1/7 48/1/16 64/1/18
f 63/1/7 64/1/18 61/1/6
f 61/1/6 64/1/18 47/1/13
f 60/1/8 49/1/19 65/1/21
f 60/1/8 65/1/21 63/1/7
f 63/1/7 65/1/21 48/1/16
f 66/1/9 54/1/39 67/1/26
f 66/1/9 67/1/26 59/1/5
f 59/1/5 67/1/26 49/1/19
f 68/1/11 50/1/27 69/1/22
f 68/1/11 69/1/22 58/1/12
f 58/1/12 69/1/22 45/1/4
f 70/1/14 51/1/30 71/1/23
f 70/1/14 71/1/23 62/1/15
f 62/1/15 71/1/23 46/1/10
f 72/1/17 52/1/33 73/1/24
f 72/1/17 73/1/24 64/1/18
f 64/1/18 73/1/24 47/1/13
f 74/1/20 53/1/36 75/1/25
f 74/1/20 75/1/25 65/1/21
f 65/1/21 75/1/25 48/1/16
f 69/1/22 50/1/27 76/1/29
f 69/1/22 76/1/29 66/1/9
f 66/1/9 76/1/29 54/1/39
f 71/1/23 51/1/30 77/1/32
f 71/1/23 77/1/32 68/1/11
f 68/1/11 77/1/32 50/1/27
f 73/1/24 52/1/33 78/1/35
f 73/1/24 78/1/35 70/1/14
f 70/1/14 78/1/35 51/1/30
f 75/1/25 53/1/36 79/1/38
f 75/1/25 79/1/38 72/1/17
f 72/1/17 79/1/38 52/1/33
f 67/1/26 54/1/39 80/1/41
f 67/1/26 80/1/41 74/1/20
f 74/1/20 80/1/41 53/1/36
f 81/1/28 55/1/42 82/1/40
f 81/1/28 82/1/40 76/1/29
f 76/1/29 82/1/40 54/1/39
f 83/1/31 55/1/42 81/1/28
f 83/1/31 81/1/28 77/1/32
f 77/1/32 81/1/28 50/1/27
f 84/1/34 55/1/42 83/1/31
f 84/1/34 83/1/31 78/1/35
f 78/1/35 83/1/31 51/1/30
f 85/1/37 55/1/42 84/1/34
f 85/1/37 84/1/34 79/1/38
f 79/1/38 84/1/34 52/1/33
f 82/1/40 55/1/42 85/1/37
f 82/1/40 85/1/37 80/1/41
f 80/1/41 85/1/37 53/1/36
f 86/1/1 98/1/2 99/1/3
f 87/1/4 101/1/5 99/1/3
f 86/1/1 103/1/6 98/1/2
f 86/1/1 105/1/7 103/1/6
f 86/1/1 102/1/8 105/1/7
f 87/1/4 108/1/9 101/1/5
f 88/1/10 110/1/11 100/1/12
f 89/1/13 112/1/14 104/1/15
f 90/1/16 114/1/17 106/1/18
f 91/1/19 116/1/20 107/1/21
f 87/1/4 111/1/22 108/1/9
f 88/1/10 113/1/23 110/1/11
f 89/1/13 115/1/24 112/1/14
f 90/1/16 117/1/25 114/1/17
f 91/1/19 109/1/26 116/1/20
f 92/1/27 123/1/28 118/1/29
f 93/1/30 125/1/31 119/1/32
f 94/1/33 126/1/34 120/1/35
f 95/1/36 127/1/37 121/1/38
f 96/1/39 124/1/40 122/1/41
f 98/1/2 88/1/10 100/1/12
f 98/1/2 100/1/12 99/1/3
f 99/1/3 100/1/12 87/1/4
f 101/1/5 91/1/19 102/1/8
f 101/1/5 102/1/8 99/1/3
f 99/1/3 102/1/8 86/1/1
f 103/1/6 89/1/13 104/1/15
f 103/1/6 104/1/15 98/1/2
f 98/1/2 104/1/15 88/1/10
f 105/1/7 90/1/16 106/1/18
f 105/1/7 106/1/18 103/1/6
f 103/1/6 106/1/18 89/1/13
f 102/1/8 91/1/19 107/1/21
f 102/1/8 107/1/21 105/1/7
f 105/1/7 107/1/21 90/1/16
f 108/1/9 96/1/39 109/1/26
f 108/1/9 109/1/26 101/1/5
f 101/1/5 109/1/26 91/1/19
f 110/1/11 92/1/27 111/1/22
f 110/1/11 111/1/22 100/1/12
f 100/1/12 111/1/22 87/1/4
f 112/1/14 93/1/30 113/1/23
f 112/1/14 113/1/23 104/1/15
f 104/1/15 113/1/23 88/1/10
f 114/1/17 94/1/33 115/1/24
f 114/1/17 115/1/24 106/1/18
f 106/1/18 115/1/24 89/1/13
f 116/1/20 95/1/36 117/1/25
f 116/1/20 117/1/25 107/1/21
f 107/1/21 117/1/25 90/1/16
f 111/1/22 92/1/27 118/1/29
f 111/1/22 118/1/29 108/1/9
f 108/1/9 118/1/29 96/1/39
f 113/1/23 93/1/30 119/1/32
f 113/1/23 119/1/32 110/1/11
f 110/1/11 119/1/32 92/1/27
f 115/1/24 94/1/33 120/1/35
f 115/1/24 120/1/35 112/1/14
f 112/1/14 120/1/35 93/1/30
f 117/1/25 95/1/36 121/1/38
f 117/1/25 121/1/38 114/1/17
f 114/1/17 121/1/38 94/1/33
f 109/1/26 96/1/39 122/1/41
f 109/1/26 122/1/41 116/1/20
f 116/1/20 122/1/41 95/1/36
f 123/1/28 97/1/42 124/1/40
f 123/1/28 124/1/40 118/1/29
f 118/1/29 124/1/40 96/1/39
f 125/1/31 97/1/42 123/1/28
f 125/1/31 123/1/28 119/1/32
f 119/1/32 123/1/28 92/1/27
f 126/1/34 97/1/42 125/1/31
f 126/1/34 125/1/31 120/1/35
f 120/1/35 125/1/31 93/1/30
f 127/1/37 97/1/42 126/1/34
f 127/1/37 126/1/34 121/1/38
f 121/1/38 126/1/34 94/1/33
f 124/1/40 97/1/42 127/1/37
f 124/1/40 127/1/37 122/1/41
f 122/1/41 127/1/37 95/1/36
f 128/1/43 140/1/44 141/1/45
f 129/1/46 143/1/47 141/1/45
f 128/1/43 145/1/48 140/1/44
f 128/1/43 147/1/49 145/1/48
f 128/1/43 144/1/50 147/1/49
f 129/1/46 150/1/51 143/1/47
f 130/1/52 152/1/11 142/1/53
f 131/1/54 154/1/55 146/1/56
f 132/1/57 156/1/58 148/1/59
f 133/1/60 158/1/61 149/1/62
f 129/1/46 153/1/63 150/1/51
f 130/1/52 155/1/64 152/1/11
f 131/1/54 157/1/65 154/1/55
f 132/1/57 159/1/25 156/1/58
f 133/1/60 151/1/66 158/1/61
f 134/1/67 165/1/68 160/1/69
f 135/1/70 167/1/71 161/1/72
f 136/1/73 168/1/74 162/1/75
f 137/1/76 169/1/77 163/1/78
f 138/1/79 166/1/80 164/1/81
f 140/1/44 130/1/52 142/1/53
f 140/1/44 142/1/53 141/1/45
f 141/1/45 142/1/53 129/1/46
f 143/1/47 133/1/60 144/1/50
f 143/1/47 144/1/50 141/1/45
f 141/1/45 144/1/50 128/1/43
f 145/1/48 131/1/54 146/1/56
f 145/1/48 146/1/56 140/1/44
f 140/1/44 146/1/56 130/1/52
f 147/1/49 132/1/57 148/1/59
f 147/1/49 148/1/59 145/1/48
f 145/1/48 148/1/59 131/1/54
f 144/1/50 133/1/60 149/1/62
f 144/1/50 149/1/62 147/1/49
f 147/1/49 149/1/62 132/1/57
f 150/1/51 138/1/79 151/1/66
f 150/1/51 151/1/66 143/1/47
f 143/1/47 151/1/66 133/1/60
f 152/1/11 134/1/67 153/1/63
f 152/1/11 153/1/63 142/1/53
f 142/1/53 153/1/63 129/1/46
f 154/1/55 135/1/70 155/1/64
f 154/1/55 155/1/64 146/1/56
f 146/1/56 155/1/64 130/1/52
f 156/1/58 136/1/73 157/1/65
f 156/1/58 157/1/65 148/1/59
f 148/1/59 157/1/65 131/1/54
f 158/1/61 137/1/76 159/1/25
f 158/1/61 159/1/25 149/1/62
f 149/1/62 159/1/25 132/1/57
f 153/1/63 134/1/67 160/1/69
f 153/1/63 160/1/69 150/1/51
f 150/1/51 160/1/69 138/1/79
f 155/1/64 135/1/70 161/1/72
f 155/1/64 161/1/72 152/1/11
f 152/1/11 161/1/72 134/1/67
f 157/1/65 136/1/73 162/1/75
f 157/1/65 162/1/75 154/1/55
f 154/1/55 162/1/75 135/1/70
f 159/1/25 137/1/76 163/1/78
f 159/1/25 163/1/78 156/1/58
f 156/1/58 163/1/78 136/1/73
f 151/1/66 138/1/79 164/1/81
f 151/1/66 164/1/81 158/1/61
f 158/1/61 164/1/81 137/1/76
f 165/1/68 139/1/82 166/1/80
f 165/1/68 166/1/80 160/1/69
f 160/1/69 166/1/80 138/1/79
f 167/1/71 139/1/82 165/1/68
f 167/1/71 165/1/68 161/1/72
f 161/1/72 165/1/68 134/1/67
f 168/1/74 139/1/82 167/1/71
f 168/1/74 167/1/71 162/1/75
f 162/1/75 167/1/71 135/1/70
f 169/1/77 139/1/82 168/1/74
f 169/1/77 168/1/74 163/1/78
f 163/1/78 168/1/74 136/1/73
f 166/1/80 139/1/82 169/1/77
f 166/1/80 169/1/77 164/1/81
f 164/1/81 169/1/77 137/1/76
f 170/1/1 182/1/2 183/1/3
f 171/1/4 185/1/5 183/1/3
f 170/1/1 187/1/6 182/1/2
f 170/1/1 189/1/7 187/1/6
f 170/1/1 186/1/8 189/1/7
f 171/1/4 192/1/9 185/1/5
f 172/1/10 194/1/11 184/1/12
f 173/1/13 196/1/14 188/1/15
f 174/1/16 198/1/17 190/1/18
f 175/1/19 200/1/20 191/1/21
f 171/1/4 195/1/22 192/1/9
f 172/1/10 197/1/23 194/1/11
f 173/1/13 199/1/24 196/1/14
f 174/1/16 201/1/25 198/1/17
f 175/1/19 193/1/26 200/1/20
f 176/1/27 207/1/28 202/1/29
f 177/1/30 209/1/31 203/1/32
f 178/1/33 210/1/34 204/1/35
f 179/1/36 211/1/37 205/1/38
f 180/1/39 208/1/40 206/1/41
f 182/1/2 172/1/10 184/1/12
f 182/1/2 184/1/12 183/1/3
f 183/1/3 184/1/12 171/1/4
f 185/1/5 175/1/19 186/1/8
f 185/1/5 186/1/8 183/1/3
f 183/1/3 186/1/8 170/1/1
f 187/1/6 173/1/13 188/1/15
f 187/1/6 188/1/15 182/1/2
f 182/1/2 188/1/15 172/1/10
f 189/1/7 174/1/16 190/1/18
f 189/1/7 190/1/18 187/1/6
f 187/1/6 190/1/18 173/1/13
f 186/1/8 175/1/19 191/1/21
f 186/1/8 191/1/21 189/1/7
f 189/1/7 191/1/21 174/1/16
f 192/1/9 180/1/39 193/1/26
f 192/1/9 193/1/26 185/1/5
f 185/1/5 193/1/26 175/1/19
f 194/1/11 176/1/27 195/1/22
f 194/1/11 195/1/22 184/1/12
f 184/1/12 195/1/22 171/1/4
f 196/1/14 177/1/30 197/1/23
f 196/1/14 197/1/23 188/1/15
f 188/1/15 197/1/23 172/1/10
f 198/1/17 178/1/33 199/1/24
f 198/1/17 199/1/24 190/1/18
f 190/1/18 199/1/24 173/1/13
f 200/1/20 179/1/36 201/1/25
f 200/1/20 201/1/25 191/1/21
f 191/1/21 201/1/25 174/1/16
f 195/1/22 176/1/27 202/1/29
f 195/1/22 202/1/29 192/1/9
f 192/1/9 202/1/29 180/1/39
f 197/1/23 177/1/30 203/1/32
f 197/1/23 203/1/32 194/1/11
f 194/1/11 203/1/32 176/1/27
f 199/1/24 178/1/33 204/1/35
f 199/1/24 204/1/35 196/1/14
f 196/1/14 204/1/35 177/1/30
f 201/1/25 179/1/36 205/1/38
f 201/1/25 205/1/38 198/1/17
f 198/1/17 205/1/38 178/1/33
f 193/1/26 180/1/39 206/1/41
f 193/1/26 206/1/41 200/1/20
f 200/1/20 206/1/41 179/1/36
f 207/1/28 181/1/42 208/1/40
f 207/1/28 208/1/40 202/1/29
f 202/1/29 208/1/40 180/1/39
f 209/1/31 181/1/42 207/1/28
f 209/1/31 207/1/28 203/1/32
f 203/1/32 207/1/28 176/1/27
f 210/1/34 181/1/42 209/1/31
f 210/1/34 209/1/31 204/1/35
f 204/1/35 209/1/31 177/1/30
f 211/1/37 181/1/42 210/1/34
f 211/1/37 210/1/34 205/1/38
f 205/1/38 210/1/34 178/1/33
f 208/1/40 181/1/42 211/1/37
f 208/1/40 211/1/37 206/1/41
f 206/1/41 211/1/37 179/1/36
