# Blender v2.72 (sub 0) OBJ File: 'Eddy.blend'
# www.blender.org
o Icosphere.003_Icosphere.002
v -0.574303 0.032963 0.098453
v -0.600590 0.060602 0.145002
v -0.616836 0.060602 0.080673
v -0.574303 0.060602 0.040915
v -0.531771 0.060602 0.080673
v -0.548017 0.060602 0.145002
v -0.616836 0.105324 0.116233
v -0.600590 0.105324 0.051904
v -0.548017 0.105324 0.051904
v -0.531771 0.105324 0.116233
v -0.574303 0.105324 0.155991
v -0.574303 0.132963 0.098453
v -0.599303 0.040430 0.088003
v -0.589754 0.040430 0.125814
v -0.614754 0.056676 0.115363
v -0.574303 0.056676 0.153175
v -0.558853 0.040430 0.125814
v -0.574303 0.040430 0.064633
v -0.599303 0.056676 0.054182
v -0.549304 0.040430 0.088003
v -0.549303 0.056676 0.054182
v -0.533853 0.056676 0.115363
v -0.589754 0.082963 0.159634
v -0.558853 0.082963 0.159634
v -0.624303 0.082963 0.098453
v -0.614754 0.082963 0.136265
v -0.589754 0.082963 0.037272
v -0.614754 0.082963 0.060641
v -0.533853 0.082963 0.060641
v -0.558853 0.082963 0.037272
v -0.533853 0.082963 0.136265
v -0.524303 0.082963 0.098453
v -0.599303 0.109250 0.142724
v -0.614754 0.109250 0.081543
v -0.574303 0.109250 0.043732
v -0.533853 0.109250 0.081543
v -0.549303 0.109250 0.142724
v -0.599303 0.125496 0.108904
v -0.574303 0.125495 0.132273
v -0.589754 0.125495 0.071092
v -0.558853 0.125495 0.071092
v -0.549304 0.125496 0.108904
v -0.574303 -0.130562 0.098453
v -0.600590 -0.102923 0.145002
v -0.616836 -0.102923 0.080673
v -0.574303 -0.102923 0.040915
v -0.531771 -0.102923 0.080673
v -0.548017 -0.102923 0.145002
v -0.616836 -0.058201 0.116233
v -0.600590 -0.058201 0.051904
v -0.548017 -0.058201 0.051904
v -0.531771 -0.058201 0.116233
v -0.574303 -0.058202 0.155991
v -0.574303 -0.030562 0.098453
v -0.599303 -0.123095 0.088003
v -0.589754 -0.123095 0.125814
v -0.614754 -0.106849 0.115363
v -0.574303 -0.106849 0.153175
v -0.558853 -0.123095 0.125814
v -0.574303 -0.123095 0.064633
v -0.599303 -0.106849 0.054182
v -0.549304 -0.123095 0.088003
v -0.549303 -0.106849 0.054182
v -0.533853 -0.106849 0.115363
v -0.589754 -0.080562 0.159634
v -0.558853 -0.080562 0.159634
v -0.624303 -0.080562 0.098453
v -0.614754 -0.080562 0.136265
v -0.589754 -0.080562 0.037272
v -0.614754 -0.080562 0.060641
v -0.533853 -0.080562 0.060641
v -0.558853 -0.080562 0.037272
v -0.533853 -0.080562 0.136265
v -0.524303 -0.080562 0.098453
v -0.599303 -0.054276 0.142724
v -0.614754 -0.054275 0.081543
v -0.574303 -0.054276 0.043732
v -0.533853 -0.054275 0.081543
v -0.549303 -0.054276 0.142724
v -0.599303 -0.038030 0.108904
v -0.574303 -0.038030 0.132273
v -0.589754 -0.038030 0.071092
v -0.558853 -0.038030 0.071092
v -0.549304 -0.038030 0.108904
v -0.574303 -0.051962 0.098453
v -0.600590 -0.024323 0.145002
v -0.616836 -0.024323 0.080673
v -0.574303 -0.024323 0.040915
v -0.531771 -0.024323 0.080673
v -0.548017 -0.024323 0.145002
v -0.616836 0.020399 0.116233
v -0.600590 0.020399 0.051904
v -0.548017 0.020399 0.051904
v -0.531771 0.020399 0.116233
v -0.574303 0.020399 0.155991
v -0.574303 0.048038 0.098453
v -0.599303 -0.044495 0.088003
v -0.589754 -0.044495 0.125814
v -0.614754 -0.028249 0.115363
v -0.574303 -0.028249 0.153175
v -0.558853 -0.044495 0.125814
v -0.574303 -0.044494 0.064633
v -0.599303 -0.028249 0.054182
v -0.549304 -0.044495 0.088003
v -0.549303 -0.028249 0.054182
v -0.533853 -0.028249 0.115363
v -0.589754 -0.001962 0.159634
v -0.558853 -0.001962 0.159634
v -0.624303 -0.001962 0.098453
v -0.614754 -0.001962 0.136265
v -0.589754 -0.001962 0.037272
v -0.614754 -0.001962 0.060641
v -0.533853 -0.001962 0.060641
v -0.558853 -0.001962 0.037272
v -0.533853 -0.001962 0.136265
v -0.524303 -0.001962 0.098453
v -0.599303 0.024325 0.142724
v -0.614754 0.024325 0.081543
v -0.574303 0.024325 0.043732
v -0.533853 0.024325 0.081543
v -0.549303 0.024325 0.142724
v -0.599303 0.040571 0.108904
v -0.574303 0.040571 0.132273
v -0.589754 0.040571 0.071092
v -0.558853 0.040571 0.071092
v -0.549304 0.040571 0.108904
v -0.488398 -0.140580 -0.003717
v -0.567257 -0.057663 0.104824
v -0.615995 -0.057663 -0.045176
v -0.488398 -0.057662 -0.137881
v -0.360801 -0.057663 -0.045176
v -0.409539 -0.057663 0.104824
v -0.615995 0.076503 0.037741
v -0.567257 0.076503 -0.112258
v -0.409539 0.076503 -0.112258
v -0.360801 0.076503 0.037741
v -0.488398 0.076503 0.130447
v -0.488398 0.159420 -0.003717
v -0.563397 -0.118178 -0.028086
v -0.534750 -0.118178 0.060081
v -0.609750 -0.069440 0.035713
v -0.488398 -0.069440 0.123880
v -0.442046 -0.118178 0.060081
v -0.488398 -0.118177 -0.082577
v -0.563397 -0.069440 -0.106946
v -0.413399 -0.118178 -0.028086
v -0.413398 -0.069440 -0.106946
v -0.367046 -0.069440 0.035713
v -0.534750 0.009420 0.138941
v -0.442046 0.009420 0.138941
v -0.638398 0.009420 -0.003717
v -0.609750 0.009420 0.084450
v -0.534750 0.009420 -0.146376
v -0.609750 0.009420 -0.091885
v -0.367045 0.009420 -0.091885
v -0.442046 0.009420 -0.146376
v -0.367045 0.009420 0.084450
v -0.338398 0.009420 -0.003717
v -0.563397 0.088281 0.099511
v -0.609750 0.088281 -0.043148
v -0.488398 0.088281 -0.131315
v -0.367046 0.088281 -0.043148
v -0.413398 0.088281 0.099511
v -0.563397 0.137018 0.020651
v -0.488398 0.137018 0.075142
v -0.534750 0.137018 -0.067516
v -0.442046 0.137018 -0.067516
v -0.413399 0.137018 0.020651
v -0.466006 0.013015 0.116910
v -0.492292 0.040654 0.163459
v -0.508538 0.040654 0.099130
v -0.466006 0.040655 0.059372
v -0.423473 0.040654 0.099130
v -0.439720 0.040654 0.163459
v -0.508538 0.085376 0.134690
v -0.492292 0.085376 0.070361
v -0.439720 0.085376 0.070361
v -0.423473 0.085376 0.134690
v -0.466006 0.085376 0.174448
v -0.466006 0.113015 0.116910
v -0.491006 0.020483 0.106459
v -0.481456 0.020483 0.144271
v -0.506456 0.036729 0.133820
v -0.466006 0.036729 0.171631
v -0.450555 0.020483 0.144271
v -0.466006 0.020483 0.083090
v -0.491006 0.036729 0.072639
v -0.441006 0.020483 0.106459
v -0.441006 0.036729 0.072639
v -0.425555 0.036729 0.133820
v -0.481457 0.063015 0.178091
v -0.450555 0.063015 0.178091
v -0.516006 0.063015 0.116910
v -0.506457 0.063015 0.154722
v -0.481457 0.063015 0.055729
v -0.506457 0.063015 0.079098
v -0.425555 0.063015 0.079098
v -0.450555 0.063015 0.055729
v -0.425555 0.063015 0.154722
v -0.416006 0.063015 0.116910
v -0.491006 0.089302 0.161181
v -0.506456 0.089302 0.100000
v -0.466006 0.089302 0.062188
v -0.425555 0.089302 0.100000
v -0.441006 0.089302 0.161181
v -0.491006 0.105548 0.127360
v -0.466006 0.105548 0.150730
v -0.481456 0.105548 0.089549
v -0.450555 0.105548 0.089549
v -0.441006 0.105548 0.127360
vt 0.000000 0.000000
vn 0.000000 -1.000000 0.000900
vn -0.316800 -0.878700 0.356900
vn -0.501800 -0.854700 -0.133100
vn -0.578600 -0.492400 0.650200
vn 0.000000 -0.597200 0.802000
vn 0.000000 -0.894200 -0.447700
vn 0.501800 -0.854700 -0.133100
vn 0.316800 -0.878700 0.356900
vn -0.364000 -0.002400 0.931400
vn -0.862200 -0.452700 -0.227200
vn -0.819200 -0.531700 0.214900
vn -1.000000 0.000000 0.000000
vn 0.000000 -0.519700 -0.854300
vn -0.547100 -0.570400 -0.612600
vn -0.364000 0.002400 -0.931400
vn 0.862200 -0.452700 -0.227200
vn 0.547100 -0.570400 -0.612600
vn 0.859500 -0.002800 -0.511100
vn 0.578600 -0.492400 0.650200
vn 0.819200 -0.531700 0.214900
vn 0.859500 0.002800 0.511100
vn -0.859500 0.002800 0.511100
vn -0.859500 -0.002800 -0.511100
vn 0.364000 0.002400 -0.931400
vn 1.000000 0.000000 0.000000
vn 0.364000 -0.002400 0.931400
vn -0.862200 0.452700 0.227200
vn -0.547100 0.570400 0.612600
vn -0.501800 0.854700 0.133100
vn -0.578600 0.492400 -0.650200
vn -0.819200 0.531700 -0.214900
vn -0.316800 0.878700 -0.356900
vn 0.578600 0.492400 -0.650200
vn 0.000000 0.597200 -0.802000
vn 0.316800 0.878700 -0.356900
vn 0.862200 0.452700 0.227200
vn 0.819200 0.531700 -0.214900
vn 0.501800 0.854700 0.133100
vn 0.000000 0.519700 0.854300
vn 0.547100 0.570400 0.612600
vn 0.000000 0.894200 0.447700
vn 0.000000 1.000000 -0.000900
vn 0.000000 -1.000000 0.000000
vn -0.309000 -0.850600 0.425300
vn -0.500000 -0.850600 -0.162500
vn -0.525700 -0.447200 0.723600
vn 0.000000 -0.525700 0.850600
vn 0.000000 -0.850600 -0.525700
vn 0.500000 -0.850600 -0.162500
vn 0.309000 -0.850600 0.425300
vn -0.309000 0.000000 0.951000
vn -0.850600 -0.447200 -0.276400
vn -0.809000 -0.525700 0.262900
vn 0.000000 -0.447200 -0.894400
vn -0.500000 -0.525700 -0.688200
vn -0.309000 0.000000 -0.951000
vn 0.850600 -0.447200 -0.276400
vn 0.500000 -0.525700 -0.688200
vn 0.809000 0.000000 -0.587800
vn 0.525700 -0.447200 0.723600
vn 0.809000 -0.525700 0.262900
vn 0.809000 0.000000 0.587800
vn -0.809000 0.000000 0.587800
vn -0.809000 0.000000 -0.587800
vn 0.309000 0.000000 -0.951000
vn 0.309000 0.000000 0.951000
vn -0.850600 0.447200 0.276400
vn -0.500000 0.525700 0.688200
vn -0.500000 0.850600 0.162500
vn -0.525700 0.447200 -0.723600
vn -0.809000 0.525700 -0.262900
vn -0.309000 0.850600 -0.425300
vn 0.525700 0.447200 -0.723600
vn 0.000000 0.525700 -0.850600
vn 0.309000 0.850600 -0.425300
vn 0.850600 0.447200 0.276400
vn 0.809000 0.525700 -0.262900
vn 0.500000 0.850600 0.162500
vn 0.000000 0.447200 0.894400
vn 0.500000 0.525700 0.688200
vn 0.000000 0.850600 0.525700
vn 0.000000 1.000000 0.000000
s 1
f 1/1/1 14/1/2 13/1/3
f 2/1/4 14/1/2 16/1/5
f 1/1/1 13/1/3 18/1/6
f 1/1/1 18/1/6 20/1/7
f 1/1/1 20/1/7 17/1/8
f 2/1/4 16/1/5 23/1/9
f 3/1/10 15/1/11 25/1/12
f 4/1/13 19/1/14 27/1/15
f 5/1/16 21/1/17 29/1/18
f 6/1/19 22/1/20 31/1/21
f 2/1/4 23/1/9 26/1/22
f 3/1/10 25/1/12 28/1/23
f 4/1/13 27/1/15 30/1/24
f 5/1/16 29/1/18 32/1/25
f 6/1/19 31/1/21 24/1/26
f 7/1/27 33/1/28 38/1/29
f 8/1/30 34/1/31 40/1/32
f 9/1/33 35/1/34 41/1/35
f 10/1/36 36/1/37 42/1/38
f 11/1/39 37/1/40 39/1/41
f 13/1/3 15/1/11 3/1/10
f 13/1/3 14/1/2 15/1/11
f 14/1/2 2/1/4 15/1/11
f 16/1/5 17/1/8 6/1/19
f 16/1/5 14/1/2 17/1/8
f 14/1/2 1/1/1 17/1/8
f 18/1/6 19/1/14 4/1/13
f 18/1/6 13/1/3 19/1/14
f 13/1/3 3/1/10 19/1/14
f 20/1/7 21/1/17 5/1/16
f 20/1/7 18/1/6 21/1/17
f 18/1/6 4/1/13 21/1/17
f 17/1/8 22/1/20 6/1/19
f 17/1/8 20/1/7 22/1/20
f 20/1/7 5/1/16 22/1/20
f 23/1/9 24/1/26 11/1/39
f 23/1/9 16/1/5 24/1/26
f 16/1/5 6/1/19 24/1/26
f 25/1/12 26/1/22 7/1/27
f 25/1/12 15/1/11 26/1/22
f 15/1/11 2/1/4 26/1/22
f 27/1/15 28/1/23 8/1/30
f 27/1/15 19/1/14 28/1/23
f 19/1/14 3/1/10 28/1/23
f 29/1/18 30/1/24 9/1/33
f 29/1/18 21/1/17 30/1/24
f 21/1/17 4/1/13 30/1/24
f 31/1/21 32/1/25 10/1/36
f 31/1/21 22/1/20 32/1/25
f 22/1/20 5/1/16 32/1/25
f 26/1/22 33/1/28 7/1/27
f 26/1/22 23/1/9 33/1/28
f 23/1/9 11/1/39 33/1/28
f 28/1/23 34/1/31 8/1/30
f 28/1/23 25/1/12 34/1/31
f 25/1/12 7/1/27 34/1/31
f 30/1/24 35/1/34 9/1/33
f 30/1/24 27/1/15 35/1/34
f 27/1/15 8/1/30 35/1/34
f 32/1/25 36/1/37 10/1/36
f 32/1/25 29/1/18 36/1/37
f 29/1/18 9/1/33 36/1/37
f 24/1/26 37/1/40 11/1/39
f 24/1/26 31/1/21 37/1/40
f 31/1/21 10/1/36 37/1/40
f 38/1/29 39/1/41 12/1/42
f 38/1/29 33/1/28 39/1/41
f 33/1/28 11/1/39 39/1/41
f 40/1/32 38/1/29 12/1/42
f 40/1/32 34/1/31 38/1/29
f 34/1/31 7/1/27 38/1/29
f 41/1/35 40/1/32 12/1/42
f 41/1/35 35/1/34 40/1/32
f 35/1/34 8/1/30 40/1/32
f 42/1/38 41/1/35 12/1/42
f 42/1/38 36/1/37 41/1/35
f 36/1/37 9/1/33 41/1/35
f 39/1/41 42/1/38 12/1/42
f 39/1/41 37/1/40 42/1/38
f 37/1/40 10/1/36 42/1/38
f 43/1/1 56/1/2 55/1/3
f 44/1/4 56/1/2 58/1/5
f 43/1/1 55/1/3 60/1/6
f 43/1/1 60/1/6 62/1/7
f 43/1/1 62/1/7 59/1/8
f 44/1/4 58/1/5 65/1/9
f 45/1/10 57/1/11 67/1/12
f 46/1/13 61/1/14 69/1/15
f 47/1/16 63/1/17 71/1/18
f 48/1/19 64/1/20 73/1/21
f 44/1/4 65/1/9 68/1/22
f 45/1/10 67/1/12 70/1/23
f 46/1/13 69/1/15 72/1/24
f 47/1/16 71/1/18 74/1/25
f 48/1/19 73/1/21 66/1/26
f 49/1/27 75/1/28 80/1/29
f 50/1/30 76/1/31 82/1/32
f 51/1/33 77/1/34 83/1/35
f 52/1/36 78/1/37 84/1/38
f 53/1/39 79/1/40 81/1/41
f 55/1/3 57/1/11 45/1/10
f 55/1/3 56/1/2 57/1/11
f 56/1/2 44/1/4 57/1/11
f 58/1/5 59/1/8 48/1/19
f 58/1/5 56/1/2 59/1/8
f 56/1/2 43/1/1 59/1/8
f 60/1/6 61/1/14 46/1/13
f 60/1/6 55/1/3 61/1/14
f 55/1/3 45/1/10 61/1/14
f 62/1/7 63/1/17 47/1/16
f 62/1/7 60/1/6 63/1/17
f 60/1/6 46/1/13 63/1/17
f 59/1/8 64/1/20 48/1/19
f 59/1/8 62/1/7 64/1/20
f 62/1/7 47/1/16 64/1/20
f 65/1/9 66/1/26 53/1/39
f 65/1/9 58/1/5 66/1/26
f 58/1/5 48/1/19 66/1/26
f 67/1/12 68/1/22 49/1/27
f 67/1/12 57/1/11 68/1/22
f 57/1/11 44/1/4 68/1/22
f 69/1/15 70/1/23 50/1/30
f 69/1/15 61/1/14 70/1/23
f 61/1/14 45/1/10 70/1/23
f 71/1/18 72/1/24 51/1/33
f 71/1/18 63/1/17 72/1/24
f 63/1/17 46/1/13 72/1/24
f 73/1/21 74/1/25 52/1/36
f 73/1/21 64/1/20 74/1/25
f 64/1/20 47/1/16 74/1/25
f 68/1/22 75/1/28 49/1/27
f 68/1/22 65/1/9 75/1/28
f 65/1/9 53/1/39 75/1/28
f 70/1/23 76/1/31 50/1/30
f 70/1/23 67/1/12 76/1/31
f 67/1/12 49/1/27 76/1/31
f 72/1/24 77/1/34 51/1/33
f 72/1/24 69/1/15 77/1/34
f 69/1/15 50/1/30 77/1/34
f 74/1/25 78/1/37 52/1/36
f 74/1/25 71/1/18 78/1/37
f 71/1/18 51/1/33 78/1/37
f 66/1/26 79/1/40 53/1/39
f 66/1/26 73/1/21 79/1/40
f 73/1/21 52/1/36 79/1/40
f 80/1/29 81/1/41 54/1/42
f 80/1/29 75/1/28 81/1/41
f 75/1/28 53/1/39 81/1/41
f 82/1/32 80/1/29 54/1/42
f 82/1/32 76/1/31 80/1/29
f 76/1/31 49/1/27 80/1/29
f 83/1/35 82/1/32 54/1/42
f 83/1/35 77/1/34 82/1/32
f 77/1/34 50/1/30 82/1/32
f 84/1/38 83/1/35 54/1/42
f 84/1/38 78/1/37 83/1/35
f 78/1/37 51/1/33 83/1/35
f 81/1/41 84/1/38 54/1/42
f 81/1/41 79/1/40 84/1/38
f 79/1/40 52/1/36 84/1/38
f 85/1/1 98/1/2 97/1/3
f 86/1/4 98/1/2 100/1/5
f 85/1/1 97/1/3 102/1/6
f 85/1/1 102/1/6 104/1/7
f 85/1/1 104/1/7 101/1/8
f 86/1/4 100/1/5 107/1/9
f 87/1/10 99/1/11 109/1/12
f 88/1/13 103/1/14 111/1/15
f 89/1/16 105/1/17 113/1/18
f 90/1/19 106/1/20 115/1/21
f 86/1/4 107/1/9 110/1/22
f 87/1/10 109/1/12 112/1/23
f 88/1/13 111/1/15 114/1/24
f 89/1/16 113/1/18 116/1/25
f 90/1/19 115/1/21 108/1/26
f 91/1/27 117/1/28 122/1/29
f 92/1/30 118/1/31 124/1/32
f 93/1/33 119/1/34 125/1/35
f 94/1/36 120/1/37 126/1/38
f 95/1/39 121/1/40 123/1/41
f 97/1/3 99/1/11 87/1/10
f 97/1/3 98/1/2 99/1/11
f 98/1/2 86/1/4 99/1/11
f 100/1/5 101/1/8 90/1/19
f 100/1/5 98/1/2 101/1/8
f 98/1/2 85/1/1 101/1/8
f 102/1/6 103/1/14 88/1/13
f 102/1/6 97/1/3 103/1/14
f 97/1/3 87/1/10 103/1/14
f 104/1/7 105/1/17 89/1/16
f 104/1/7 102/1/6 105/1/17
f 102/1/6 88/1/13 105/1/17
f 101/1/8 106/1/20 90/1/19
f 101/1/8 104/1/7 106/1/20
f 104/1/7 89/1/16 106/1/20
f 107/1/9 108/1/26 95/1/39
f 107/1/9 100/1/5 108/1/26
f 100/1/5 90/1/19 108/1/26
f 109/1/12 110/1/22 91/1/27
f 109/1/12 99/1/11 110/1/22
f 99/1/11 86/1/4 110/1/22
f 111/1/15 112/1/23 92/1/30
f 111/1/15 103/1/14 112/1/23
f 103/1/14 87/1/10 112/1/23
f 113/1/18 114/1/24 93/1/33
f 113/1/18 105/1/17 114/1/24
f 105/1/17 88/1/13 114/1/24
f 115/1/21 116/1/25 94/1/36
f 115/1/21 106/1/20 116/1/25
f 106/1/20 89/1/16 116/1/25
f 110/1/22 117/1/28 91/1/27
f 110/1/22 107/1/9 117/1/28
f 107/1/9 95/1/39 117/1/28
f 112/1/23 118/1/31 92/1/30
f 112/1/23 109/1/12 118/1/31
f 109/1/12 91/1/27 118/1/31
f 114/1/24 119/1/34 93/1/33
f 114/1/24 111/1/15 119/1/34
f 111/1/15 92/1/30 119/1/34
f 116/1/25 120/1/37 94/1/36
f 116/1/25 113/1/18 120/1/37
f 113/1/18 93/1/33 120/1/37
f 108/1/26 121/1/40 95/1/39
f 108/1/26 115/1/21 121/1/40
f 115/1/21 94/1/36 121/1/40
f 122/1/29 123/1/41 96/1/42
f 122/1/29 117/1/28 123/1/41
f 117/1/28 95/1/39 123/1/41
f 124/1/32 122/1/29 96/1/42
f 124/1/32 118/1/31 122/1/29
f 118/1/31 91/1/27 122/1/29
f 125/1/35 124/1/32 96/1/42
f 125/1/35 119/1/34 124/1/32
f 119/1/34 92/1/30 124/1/32
f 126/1/38 125/1/35 96/1/42
f 126/1/38 120/1/37 125/1/35
f 120/1/37 93/1/33 125/1/35
f 123/1/41 126/1/38 96/1/42
f 123/1/41 121/1/40 126/1/38
f 121/1/40 94/1/36 126/1/38
f 127/1/43 140/1/44 139/1/45
f 128/1/46 140/1/44 142/1/47
f 127/1/43 139/1/45 144/1/48
f 127/1/43 144/1/48 146/1/49
f 127/1/43 146/1/49 143/1/50
f 128/1/46 142/1/47 149/1/51
f 129/1/52 141/1/53 151/1/12
f 130/1/54 145/1/55 153/1/56
f 131/1/57 147/1/58 155/1/59
f 132/1/60 148/1/61 157/1/62
f 128/1/46 149/1/51 152/1/63
f 129/1/52 151/1/12 154/1/64
f 130/1/54 153/1/56 156/1/65
f 131/1/57 155/1/59 158/1/25
f 132/1/60 157/1/62 150/1/66
f 133/1/67 159/1/68 164/1/69
f 134/1/70 160/1/71 166/1/72
f 135/1/73 161/1/74 167/1/75
f 136/1/76 162/1/77 168/1/78
f 137/1/79 163/1/80 165/1/81
f 139/1/45 141/1/53 129/1/52
f 139/1/45 140/1/44 141/1/53
f 140/1/44 128/1/46 141/1/53
f 142/1/47 143/1/50 132/1/60
f 142/1/47 140/1/44 143/1/50
f 140/1/44 127/1/43 143/1/50
f 144/1/48 145/1/55 130/1/54
f 144/1/48 139/1/45 145/1/55
f 139/1/45 129/1/52 145/1/55
f 146/1/49 147/1/58 131/1/57
f 146/1/49 144/1/48 147/1/58
f 144/1/48 130/1/54 147/1/58
f 143/1/50 148/1/61 132/1/60
f 143/1/50 146/1/49 148/1/61
f 146/1/49 131/1/57 148/1/61
f 149/1/51 150/1/66 137/1/79
f 149/1/51 142/1/47 150/1/66
f 142/1/47 132/1/60 150/1/66
f 151/1/12 152/1/63 133/1/67
f 151/1/12 141/1/53 152/1/63
f 141/1/53 128/1/46 152/1/63
f 153/1/56 154/1/64 134/1/70
f 153/1/56 145/1/55 154/1/64
f 145/1/55 129/1/52 154/1/64
f 155/1/59 156/1/65 135/1/73
f 155/1/59 147/1/58 156/1/65
f 147/1/58 130/1/54 156/1/65
f 157/1/62 158/1/25 136/1/76
f 157/1/62 148/1/61 158/1/25
f 148/1/61 131/1/57 158/1/25
f 152/1/63 159/1/68 133/1/67
f 152/1/63 149/1/51 159/1/68
f 149/1/51 137/1/79 159/1/68
f 154/1/64 160/1/71 134/1/70
f 154/1/64 151/1/12 160/1/71
f 151/1/12 133/1/67 160/1/71
f 156/1/65 161/1/74 135/1/73
f 156/1/65 153/1/56 161/1/74
f 153/1/56 134/1/70 161/1/74
f 158/1/25 162/1/77 136/1/76
f 158/1/25 155/1/59 162/1/77
f 155/1/59 135/1/73 162/1/77
f 150/1/66 163/1/80 137/1/79
f 150/1/66 157/1/62 163/1/80
f 157/1/62 136/1/76 163/1/80
f 164/1/69 165/1/81 138/1/82
f 164/1/69 159/1/68 165/1/81
f 159/1/68 137/1/79 165/1/81
f 166/1/72 164/1/69 138/1/82
f 166/1/72 160/1/71 164/1/69
f 160/1/71 133/1/67 164/1/69
f 167/1/75 166/1/72 138/1/82
f 167/1/75 161/1/74 166/1/72
f 161/1/74 134/1/70 166/1/72
f 168/1/78 167/1/75 138/1/82
f 168/1/78 162/1/77 167/1/75
f 162/1/77 135/1/73 167/1/75
f 165/1/81 168/1/78 138/1/82
f 165/1/81 163/1/80 168/1/78
f 163/1/80 136/1/76 168/1/78
f 169/1/1 182/1/2 181/1/3
f 170/1/4 182/1/2 184/1/5
f 169/1/1 181/1/3 186/1/6
f 169/1/1 186/1/6 188/1/7
f 169/1/1 188/1/7 185/1/8
f 170/1/4 184/1/5 191/1/9
f 171/1/10 183/1/11 193/1/12
f 172/1/13 187/1/14 195/1/15
f 173/1/16 189/1/17 197/1/18
f 174/1/19 190/1/20 199/1/21
f 170/1/4 191/1/9 194/1/22
f 171/1/10 193/1/12 196/1/23
f 172/1/13 195/1/15 198/1/24
f 173/1/16 197/1/18 200/1/25
f 174/1/19 199/1/21 192/1/26
f 175/1/27 201/1/28 206/1/29
f 176/1/30 202/1/31 208/1/32
f 177/1/33 203/1/34 209/1/35
f 178/1/36 204/1/37 210/1/38
f 179/1/39 205/1/40 207/1/41
f 181/1/3 183/1/11 171/1/10
f 181/1/3 182/1/2 183/1/11
f 182/1/2 170/1/4 183/1/11
f 184/1/5 185/1/8 174/1/19
f 184/1/5 182/1/2 185/1/8
f 182/1/2 169/1/1 185/1/8
f 186/1/6 187/1/14 172/1/13
f 186/1/6 181/1/3 187/1/14
f 181/1/3 171/1/10 187/1/14
f 188/1/7 189/1/17 173/1/16
f 188/1/7 186/1/6 189/1/17
f 186/1/6 172/1/13 189/1/17
f 185/1/8 190/1/20 174/1/19
f 185/1/8 188/1/7 190/1/20
f 188/1/7 173/1/16 190/1/20
f 191/1/9 192/1/26 179/1/39
f 191/1/9 184/1/5 192/1/26
f 184/1/5 174/1/19 192/1/26
f 193/1/12 194/1/22 175/1/27
f 193/1/12 183/1/11 194/1/22
f 183/1/11 170/1/4 194/1/22
f 195/1/15 196/1/23 176/1/30
f 195/1/15 187/1/14 196/1/23
f 187/1/14 171/1/10 196/1/23
f 197/1/18 198/1/24 177/1/33
f 197/1/18 189/1/17 198/1/24
f 189/1/17 172/1/13 198/1/24
f 199/1/21 200/1/25 178/1/36
f 199/1/21 190/1/20 200/1/25
f 190/1/20 173/1/16 200/1/25
f 194/1/22 201/1/28 175/1/27
f 194/1/22 191/1/9 201/1/28
f 191/1/9 179/1/39 201/1/28
f 196/1/23 202/1/31 176/1/30
f 196/1/23 193/1/12 202/1/31
f 193/1/12 175/1/27 202/1/31
f 198/1/24 203/1/34 177/1/33
f 198/1/24 195/1/15 203/1/34
f 195/1/15 176/1/30 203/1/34
f 200/1/25 204/1/37 178/1/36
f 200/1/25 197/1/18 204/1/37
f 197/1/18 177/1/33 204/1/37
f 192/1/26 205/1/40 179/1/39
f 192/1/26 199/1/21 205/1/40
f 199/1/21 178/1/36 205/1/40
f 206/1/29 207/1/41 180/1/42
f 206/1/29 201/1/28 207/1/41
f 201/1/28 179/1/39 207/1/41
f 208/1/32 206/1/29 180/1/42
f 208/1/32 202/1/31 206/1/29
f 202/1/31 175/1/27 206/1/29
f 209/1/35 208/1/32 180/1/42
f 209/1/35 203/1/34 208/1/32
f 203/1/34 176/1/30 208/1/32
f 210/1/38 209/1/35 180/1/42
f 210/1/38 204/1/37 209/1/35
f 204/1/37 177/1/33 209/1/35
f 207/1/41 210/1/38 180/1/42
f 207/1/41 205/1/40 210/1/38
f 205/1/40 178/1/36 210/1/38
