# Blender v2.72 (sub 0) OBJ File: 'Eddy.blend'
# www.blender.org
o eye_Circle
v -0.011399 0.469106 0.207156
v -0.011399 0.572684 0.179402
v -0.011399 0.648508 0.103578
v -0.011399 0.676262 -0.000000
v -0.011399 0.648508 -0.103578
v -0.011399 0.572684 -0.179402
v -0.011399 0.469106 -0.207156
v -0.011399 0.365528 -0.179402
v -0.011399 0.289704 -0.103578
v -0.011399 0.261950 -0.000000
v -0.011399 0.289704 0.103578
v -0.011399 0.365528 0.179402
v -0.022798 0.720316 -0.000000
v -0.022798 0.217896 -0.000000
v -0.022798 0.469106 0.558833
v -0.022798 0.469106 -0.558833
v -0.022798 0.683903 -0.186278
v -0.022798 0.598018 -0.372555
v -0.022798 0.683903 0.186278
v -0.022798 0.598018 0.372555
v -0.022798 0.254310 0.186277
v -0.022798 0.340194 0.372555
v -0.022798 0.254310 -0.186278
v -0.022798 0.340194 -0.372555
v -0.022798 0.583095 0.197435
v -0.022798 0.469106 0.227979
v -0.022798 0.666541 0.113989
v -0.022798 0.697085 -0.000000
v -0.022798 0.666541 -0.113989
v -0.022798 0.583095 -0.197435
v -0.022798 0.469106 -0.227979
v -0.022798 0.355117 -0.197435
v -0.022798 0.271671 -0.113989
v -0.022798 0.241127 -0.000000
v -0.022798 0.271671 0.113989
v -0.022798 0.355117 0.197435
v 0.022798 0.720316 -0.000000
v 0.022798 0.217896 -0.000000
v 0.022798 0.469106 0.558833
v 0.022798 0.469106 -0.558833
v 0.022798 0.683903 -0.186278
v 0.022798 0.598018 -0.372555
v 0.022798 0.683903 0.186278
v 0.022798 0.598018 0.372555
v 0.022798 0.254310 0.186277
v 0.022798 0.340194 0.372555
v 0.022798 0.254310 -0.186278
v 0.022798 0.340194 -0.372555
v 0.022798 0.583095 0.197435
v 0.022798 0.469106 0.227979
v 0.022798 0.666541 0.113989
v 0.022798 0.697085 -0.000000
v 0.022798 0.666541 -0.113989
v 0.022798 0.583095 -0.197435
v 0.022798 0.469106 -0.227979
v 0.022798 0.355117 -0.197435
v 0.022798 0.271671 -0.113989
v 0.022798 0.241127 -0.000000
v 0.022798 0.271671 0.113989
v 0.022798 0.355117 0.197435
v 0.034857 0.789307 0.520775
v 0.034857 0.839726 0.457861
v -0.033537 0.789307 0.520775
v -0.033537 0.839726 0.457861
v 0.034857 0.168928 -0.439389
v 0.034857 0.219347 -0.502303
v -0.033537 0.168928 -0.439389
v -0.033537 0.219347 -0.502303
v -0.021549 0.691023 -0.206061
v -0.021549 0.706750 -0.161800
v 0.022798 0.691023 -0.206061
v 0.022798 0.706750 -0.161800
v -0.021549 0.826554 -0.254218
v -0.021549 0.842281 -0.209957
v 0.022798 0.826554 -0.254218
v 0.022798 0.842281 -0.209957
v 0.022798 0.877081 0.065919
v 0.022798 0.870964 0.112491
v -0.021549 0.877081 0.065919
v -0.021549 0.870964 0.112491
v 0.022798 0.734474 0.047186
v 0.022798 0.728356 0.093758
v -0.021549 0.734474 0.047186
v -0.021549 0.728356 0.093758
v -0.021549 0.691023 0.211001
v -0.021549 0.706750 0.166740
v 0.022798 0.691023 0.211001
v 0.022798 0.706750 0.166740
v -0.021549 0.826554 0.259158
v -0.021549 0.842281 0.214897
v 0.022798 0.826554 0.259158
v 0.022798 0.842281 0.214897
v 0.022798 0.877215 -0.058924
v 0.022798 0.870639 -0.105434
v -0.021549 0.877215 -0.058924
v -0.021549 0.870639 -0.105434
v 0.022798 0.734799 -0.038788
v 0.022798 0.728223 -0.085298
v -0.021549 0.734799 -0.038788
v -0.021549 0.728223 -0.085298
v 0.011399 0.469106 0.207156
v 0.011399 0.572684 0.179402
v 0.011399 0.648508 0.103578
v 0.011399 0.676262 -0.000000
v 0.011399 0.648508 -0.103578
v 0.011399 0.572684 -0.179402
v 0.011399 0.469106 -0.207156
v 0.011399 0.365528 -0.179402
v 0.011399 0.289704 -0.103578
v 0.011399 0.261950 -0.000000
v 0.011399 0.289704 0.103578
v 0.011399 0.365528 0.179402
vt 0.719673 0.117658
vt 0.946185 0.056965
vt 0.885492 0.021923
vt 0.333689 0.269129
vt 0.485216 0.247251
vt 0.484286 0.265967
vt 0.180182 0.330861
vt 0.391231 0.286009
vt 0.291494 0.440504
vt 0.320664 0.349894
vt 0.024951 0.427258
vt 0.311537 0.533559
vt 0.169859 0.538570
vt 0.375422 0.604125
vt 0.316490 0.615218
vt 0.466031 0.633295
vt 0.465101 0.652011
vt 0.616628 0.630133
vt 0.770136 0.568401
vt 0.559086 0.613253
vt 0.658823 0.458758
vt 0.629653 0.549368
vt 0.638780 0.365703
vt 0.780458 0.360692
vt 0.574895 0.295137
vt 0.633827 0.284044
vt 0.925366 0.472004
vt 0.718041 0.936919
vt 0.640913 0.936919
vt 0.640913 0.907119
vt 0.439901 0.985784
vt 0.315852 0.985784
vt 0.315852 0.955984
vt 0.795168 0.936919
vt 0.718040 0.907119
vt 0.563785 0.936919
vt 0.486657 0.936919
vt 0.486657 0.907119
vt 0.698011 0.955984
vt 0.846066 0.955983
vt 0.846067 0.985783
vt 0.409529 0.936919
vt 0.332402 0.936919
vt 0.332402 0.907119
vt 0.181790 0.985784
vt 0.033735 0.985784
vt 0.033735 0.955984
vt 0.181790 0.955986
vt 0.255274 0.907119
vt 0.255274 0.936919
vt 0.178147 0.936919
vt 0.563950 0.955984
vt 0.698011 0.985784
vt 0.563950 0.985784
vt 0.563950 0.955984
vt 0.101019 0.936919
vt 0.023892 0.936919
vt 0.023892 0.907119
vt 0.872296 0.907119
vt 0.872296 0.936919
vt 0.409529 0.907119
vt 0.439901 0.955985
vt 0.101019 0.907119
vt 0.563950 0.985784
vt 0.949424 0.936918
vt 0.901057 0.862378
vt 0.918356 0.812605
vt 0.960579 0.827280
vt 0.047096 0.797931
vt 0.089318 0.812606
vt 0.072020 0.862379
vt 0.089318 0.767906
vt 0.901057 0.718132
vt 0.072020 0.718133
vt 0.072020 0.673433
vt 0.918356 0.767906
vt 0.595770 0.167453
vt 0.595770 0.138469
vt 0.626470 0.138469
vt 0.471066 0.138469
vt 0.501766 0.138469
vt 0.501766 0.167453
vt 0.501766 0.107770
vt 0.501766 0.078786
vt 0.595770 0.078786
vt 0.595770 0.107770
vt 0.501766 0.048086
vt 0.595770 0.048086
vt 0.471066 0.167453
vt 0.626469 0.167453
vt 0.981227 0.117658
vt 0.981227 0.187742
vt 0.815408 0.021923
vt 0.754714 0.056965
vt 0.719673 0.187741
vt 0.754714 0.248435
vt 0.815408 0.283477
vt 0.885492 0.283477
vt 0.946185 0.248435
vt 0.795168 0.907119
vt 0.563785 0.907119
vt 0.178147 0.907119
vt 0.949424 0.907118
vt 0.943280 0.877053
vt 0.029797 0.847704
vt 0.901057 0.673433
vn 1.000000 -0.000000 -0.000000
vn -1.000000 0.000000 -0.000000
vn 0.000000 0.258800 -0.965900
vn 0.000000 0.981400 -0.191900
vn 0.000000 -0.258800 -0.965900
vn 0.000000 0.965900 -0.258800
vn 0.000000 -0.822300 0.569100
vn 0.000000 0.707100 0.707100
vn 0.000000 0.822300 -0.569100
vn 0.000000 -0.908100 -0.418700
vn 0.000000 -0.258800 0.965900
vn 0.000000 -0.908100 0.418700
vn 0.000000 0.908100 0.418700
vn 0.000000 -0.965900 0.258800
vn 0.000000 0.908100 -0.418700
vn 0.000000 -0.707100 -0.707100
vn 0.000000 0.707100 -0.707100
vn 0.000000 -0.822300 -0.569100
vn 0.000000 0.965900 0.258800
vn 0.000000 0.822300 0.569100
vn 0.000000 0.258800 0.965900
vn 0.000000 -0.981400 -0.191900
vn 0.000000 -0.707100 0.707100
vn 0.000000 -0.981400 0.191800
vn 0.000000 0.981400 0.191800
vn 0.000000 -0.965900 -0.258800
vn 0.000000 0.780300 0.625400
vn 0.000000 -0.780300 -0.625400
vn 0.000000 -0.839900 0.542700
vn 0.000000 0.839900 -0.542700
vn 0.000000 -0.942300 0.334800
vn 0.000000 0.942300 -0.334800
vn 0.000000 -0.334800 -0.942300
vn 0.000000 0.334800 0.942300
vn 0.000000 0.130200 -0.991500
vn 0.000000 -0.130200 0.991500
vn 0.000000 0.991500 0.130200
vn 0.000000 -0.991500 -0.130200
vn 0.000000 -0.942300 -0.334800
vn 0.000000 0.942300 0.334800
vn 0.000000 -0.334800 0.942300
vn 0.000000 0.334800 -0.942300
vn 0.000000 0.140000 0.990200
vn 0.000000 -0.140000 -0.990200
vn 0.000000 0.990200 -0.140000
vn 0.000000 -0.990200 0.140000
vn 0.000000 0.981400 -0.191800
vn 0.000000 -0.981400 -0.191800
vn 0.000000 0.981400 0.191900
s off
f 10/1/1 2/2/1 1/3/1
f 23/4/2 14/5/2 34/6/2
f 24/7/2 23/4/2 33/8/2
f 31/9/2 24/7/2 32/10/2
f 16/11/2 24/7/2 31/9/2
f 31/9/2 30/12/2 18/13/2
f 29/14/2 17/15/2 18/13/2
f 28/16/2 13/17/2 17/15/2
f 19/18/2 13/17/2 28/16/2
f 20/19/2 19/18/2 27/20/2
f 26/21/2 20/19/2 25/22/2
f 26/21/2 36/23/2 22/24/2
f 35/25/2 21/26/2 22/24/2
f 34/6/2 14/5/2 21/26/2
f 26/21/2 22/24/2 15/27/2
f 58/16/1 38/17/1 47/15/1
f 57/14/1 47/15/1 48/13/1
f 55/9/1 56/12/1 48/13/1
f 40/11/1 42/7/1 55/9/1
f 55/9/1 42/7/1 54/10/1
f 42/7/1 41/4/1 53/8/1
f 41/4/1 37/5/1 52/6/1
f 52/6/1 37/5/1 43/26/1
f 51/25/1 43/26/1 44/24/1
f 50/21/1 49/23/1 44/24/1
f 50/21/1 46/19/1 60/22/1
f 46/19/1 45/18/1 59/20/1
f 45/18/1 38/17/1 58/16/1
f 39/27/1 46/19/1 50/21/1
f 50/28/3 60/29/3 36/30/3
f 37/31/4 41/32/4 17/33/4
f 49/34/5 50/28/5 26/35/5
f 59/36/6 58/37/6 34/38/6
f 46/39/7 39/40/7 15/41/7
f 57/42/8 56/43/8 32/44/8
f 42/45/9 40/46/9 16/47/9
f 24/45/10 48/48/10 47/33/10
f 31/49/11 55/50/11 54/51/11
f 45/52/12 46/39/12 22/53/12
f 44/53/13 43/54/13 19/55/13
f 53/56/14 52/57/14 28/58/14
f 41/32/15 42/45/15 18/48/15
f 27/59/16 51/60/16 49/34/16
f 36/30/17 60/29/17 59/36/17
f 40/47/18 48/48/18 24/45/18
f 58/37/19 57/42/19 33/61/19
f 39/41/20 44/53/20 20/39/20
f 32/44/21 56/43/21 55/50/21
f 47/33/22 38/62/22 14/31/22
f 54/51/23 53/56/23 29/63/23
f 38/62/24 45/52/24 21/64/24
f 43/54/25 37/31/25 13/62/25
f 52/65/26 51/60/26 27/59/26
f 64/66/27 63/67/27 61/68/27
f 65/69/28 67/70/28 68/71/28
f 63/67/29 67/70/29 65/72/29
f 62/73/30 66/74/30 68/75/30
f 63/67/2 64/66/2 68/71/2
f 61/76/1 65/72/1 66/74/1
f 69/77/31 71/78/31 72/79/31
f 76/80/32 75/81/32 73/82/32
f 69/77/33 73/82/33 75/81/33
f 76/83/34 74/84/34 70/85/34
f 75/81/1 76/83/1 72/86/1
f 74/84/2 73/87/2 69/88/2
f 84/85/2 80/84/2 79/87/2
f 82/86/1 81/78/1 77/81/1
f 83/77/35 79/82/35 77/81/35
f 82/86/36 78/83/36 80/84/36
f 80/89/37 78/80/37 77/81/37
f 83/77/38 81/78/38 82/79/38
f 88/78/39 87/79/39 85/90/39
f 89/89/40 91/80/40 92/81/40
f 87/86/41 91/83/41 89/84/41
f 86/77/42 90/82/42 92/81/42
f 88/78/1 92/81/1 91/83/1
f 85/85/2 89/84/2 90/87/2
f 95/84/2 96/87/2 100/88/2
f 94/81/1 93/83/1 97/86/1
f 93/83/43 95/84/43 99/85/43
f 96/82/44 94/81/44 98/78/44
f 93/80/45 94/81/45 96/82/45
f 100/77/46 98/78/46 97/79/46
f 102/2/2 103/91/2 104/92/2
f 12/93/3 1/3/3 101/3/3
f 12/93/17 112/93/17 111/94/17
f 11/94/6 111/94/6 110/1/6
f 10/1/19 110/1/19 109/95/19
f 9/95/8 109/95/8 108/96/8
f 8/96/21 108/96/21 107/97/21
f 7/97/11 107/97/11 106/98/11
f 6/98/23 106/98/23 105/99/23
f 5/99/14 105/99/14 104/92/14
f 3/91/26 4/92/26 104/92/26
f 3/91/16 103/91/16 102/2/16
f 1/3/5 2/2/5 102/2/5
f 4/92/1 3/91/1 2/2/1
f 32/10/2 24/7/2 33/8/2
f 6/98/1 10/1/1 7/97/1
f 10/1/1 9/95/1 8/96/1
f 12/93/1 11/94/1 10/1/1
f 12/93/1 10/1/1 1/3/1
f 10/1/1 5/99/1 2/2/1
f 5/99/1 4/92/1 2/2/1
f 10/1/1 8/96/1 7/97/1
f 10/1/1 6/98/1 5/99/1
f 33/8/2 23/4/2 34/6/2
f 18/13/2 16/11/2 31/9/2
f 30/12/2 29/14/2 18/13/2
f 29/14/2 28/16/2 17/15/2
f 27/20/2 19/18/2 28/16/2
f 25/22/2 20/19/2 27/20/2
f 36/23/2 35/25/2 22/24/2
f 35/25/2 34/6/2 21/26/2
f 20/19/2 26/21/2 15/27/2
f 57/14/1 58/16/1 47/15/1
f 56/12/1 57/14/1 48/13/1
f 48/13/1 40/11/1 55/9/1
f 54/10/1 42/7/1 53/8/1
f 53/8/1 41/4/1 52/6/1
f 51/25/1 52/6/1 43/26/1
f 49/23/1 51/25/1 44/24/1
f 60/22/1 46/19/1 59/20/1
f 59/20/1 45/18/1 58/16/1
f 44/24/1 39/27/1 50/21/1
f 26/35/3 50/28/3 36/30/3
f 13/62/47 37/31/47 17/33/47
f 25/100/5 49/34/5 26/35/5
f 35/101/6 59/36/6 34/38/6
f 22/53/7 46/39/7 15/41/7
f 33/61/8 57/42/8 32/44/8
f 18/48/9 42/45/9 16/47/9
f 23/32/10 24/45/10 47/33/10
f 30/102/11 31/49/11 54/51/11
f 21/64/12 45/52/12 22/53/12
f 20/39/13 44/53/13 19/55/13
f 29/63/14 53/56/14 28/58/14
f 17/33/15 41/32/15 18/48/15
f 25/100/16 27/59/16 49/34/16
f 35/101/17 36/30/17 59/36/17
f 16/46/18 40/47/18 24/45/18
f 34/38/19 58/37/19 33/61/19
f 15/40/20 39/41/20 20/39/20
f 31/49/21 32/44/21 55/50/21
f 23/32/48 47/33/48 14/31/48
f 30/102/23 54/51/23 29/63/23
f 14/31/24 38/62/24 21/64/24
f 19/55/49 43/54/49 13/62/49
f 28/103/26 52/65/26 27/59/26
f 62/104/27 64/66/27 61/68/27
f 66/105/28 65/69/28 68/71/28
f 61/76/29 63/67/29 65/72/29
f 64/106/30 62/73/30 68/75/30
f 67/70/2 63/67/2 68/71/2
f 62/73/1 61/76/1 66/74/1
f 70/90/31 69/77/31 72/79/31
f 74/89/32 76/80/32 73/82/32
f 71/78/33 69/77/33 75/81/33
f 72/86/34 76/83/34 70/85/34
f 71/78/1 75/81/1 72/86/1
f 70/85/2 74/84/2 69/88/2
f 83/88/2 84/85/2 79/87/2
f 78/83/1 82/86/1 77/81/1
f 81/78/35 83/77/35 77/81/35
f 84/85/36 82/86/36 80/84/36
f 79/82/37 80/89/37 77/81/37
f 84/90/38 83/77/38 82/79/38
f 86/77/39 88/78/39 85/90/39
f 90/82/40 89/89/40 92/81/40
f 85/85/41 87/86/41 89/84/41
f 88/78/42 86/77/42 92/81/42
f 87/86/1 88/78/1 91/83/1
f 86/88/2 85/85/2 90/87/2
f 99/85/2 95/84/2 100/88/2
f 98/78/1 94/81/1 97/86/1
f 97/86/43 93/83/43 99/85/43
f 100/77/44 96/82/44 98/78/44
f 95/89/45 93/80/45 96/82/45
f 99/90/46 100/77/46 97/79/46
f 112/93/2 101/3/2 102/2/2
f 112/93/2 102/2/2 111/94/2
f 108/96/2 109/95/2 110/1/2
f 108/96/2 105/99/2 107/97/2
f 105/99/2 106/98/2 107/97/2
f 112/93/3 12/93/3 101/3/3
f 11/94/17 12/93/17 111/94/17
f 110/1/2 102/2/2 108/96/2
f 102/2/2 110/1/2 111/94/2
f 102/2/2 104/92/2 105/99/2
f 102/2/2 105/99/2 108/96/2
f 10/1/6 11/94/6 110/1/6
f 9/95/19 10/1/19 109/95/19
f 8/96/8 9/95/8 108/96/8
f 7/97/21 8/96/21 107/97/21
f 6/98/11 7/97/11 106/98/11
f 5/99/23 6/98/23 105/99/23
f 4/92/14 5/99/14 104/92/14
f 103/91/26 3/91/26 104/92/26
f 2/2/16 3/91/16 102/2/16
f 101/3/5 1/3/5 102/2/5
