# Blender v2.72 (sub 0) OBJ File: 'testRoomEddy.blend'
# www.blender.org
o Plane
v -11.575986 -1.000000 -2.491678
v -11.575986 -1.000000 -3.491678
v -10.575985 -1.000000 -3.491678
v -10.575986 -1.000000 -2.491678
v -11.575986 2.000000 -2.491678
v -11.575985 2.000000 -3.491678
v -10.575985 2.000000 -3.491678
v -10.575985 2.000000 -2.491678
v -2.677485 -1.000000 -12.213997
v -2.677485 -1.000000 -13.213997
v -1.677485 -1.000000 -13.213997
v -1.677486 -1.000000 -12.213997
v -2.677486 2.000000 -12.213998
v -2.677485 2.000000 -13.213998
v -1.677485 2.000000 -13.213997
v -1.677486 2.000000 -12.213997
v 11.022148 -1.000000 6.649753
v 11.022148 -1.000000 5.649753
v 12.022149 -1.000000 5.649753
v 12.022148 -1.000000 6.649753
v 11.022148 2.000000 6.649752
v 11.022149 2.000000 5.649752
v 12.022149 2.000000 5.649753
v 12.022149 2.000000 6.649753
v 8.612076 -1.000000 -2.220179
v 8.612076 -1.000000 -3.220179
v 9.612076 -1.000000 -3.220178
v 9.612075 -1.000000 -2.220178
v 8.612076 2.000000 -2.220179
v 8.612076 2.000000 -3.220179
v 9.612076 2.000000 -3.220178
v 9.612076 2.000000 -2.220178
v 3.449908 -1.000000 9.050477
v 3.449908 -1.000000 8.050477
v 4.449908 -1.000000 8.050478
v 4.449908 -1.000000 9.050477
v 3.449908 2.000000 9.050476
v 3.449908 2.000000 8.050477
v 4.449908 2.000000 8.050478
v 4.449908 2.000000 9.050477
v 25.000000 0.000000 -25.000000
v -25.000000 0.000000 -25.000000
v 25.000000 0.000000 25.000000
v -25.000000 0.000000 25.000000
v 25.000000 14.968830 -25.000000
v -25.000000 14.968830 -25.000000
v 25.000000 14.968830 25.000000
v -25.000000 14.968830 25.000000
v -0.500000 -1.000000 0.500000
v -0.500000 -1.000000 -0.500000
v 0.500000 -1.000000 -0.500000
v 0.500000 -1.000000 0.500000
v -0.500000 2.000000 0.500000
v -0.500000 2.000000 -0.500000
v 0.500000 2.000000 -0.500000
v 0.500000 2.000000 0.500000
vt 0.731520 0.450166
vt 0.731520 0.430166
vt 0.711520 0.430166
vt 0.711520 0.450166
vt 0.450166 0.540000
vt 0.430166 0.540000
vt 0.430166 0.480000
vt 0.731520 0.540000
vt 0.711520 0.540000
vt 0.711520 0.480000
vt 0.450166 0.480000
vt 0.731520 0.480000
vt 0.553550 0.255720
vt 0.553550 0.235720
vt 0.533550 0.235720
vt 0.533550 0.255720
vt 0.255720 0.480000
vt 0.255720 0.540000
vt 0.235720 0.540000
vt 0.553550 0.540000
vt 0.533550 0.540000
vt 0.533550 0.480000
vt 0.553550 0.480000
vt 0.279557 0.612995
vt 0.259557 0.612995
vt 0.259557 0.632995
vt 0.632995 0.480000
vt 0.632995 0.540000
vt 0.612995 0.540000
vt 0.279557 0.540000
vt 0.259557 0.540000
vt 0.259557 0.480000
vt 0.279557 0.480000
vt 0.327758 0.455596
vt 0.327758 0.435596
vt 0.307758 0.435596
vt 0.307758 0.455596
vt 0.455596 0.540000
vt 0.435596 0.540000
vt 0.435596 0.480000
vt 0.327758 0.540000
vt 0.307758 0.540000
vt 0.307758 0.480000
vt 0.455596 0.480000
vt 0.327758 0.480000
vt 0.431002 0.661010
vt 0.411002 0.661010
vt 0.411002 0.681010
vt 0.681010 0.480000
vt 0.681010 0.540000
vt 0.661010 0.540000
vt 0.431002 0.480000
vt 0.431002 0.540000
vt 0.411002 0.540000
vt 0.411002 0.480000
vt 1.000000 0.000000
vt 1.000000 1.000000
vt 0.000000 1.000000
vt 1.000000 0.500000
vt 1.000000 0.799377
vt 0.000000 0.799377
vt -1.000000 0.500000
vt -1.000000 0.799377
vt 0.510000 0.490000
vt 0.490000 0.490000
vt 0.490000 0.510000
vt 0.510000 0.540000
vt 0.490000 0.540000
vt 0.490000 0.480000
vt 0.510000 0.480000
vt 0.235720 0.480000
vt 0.279557 0.632995
vt 0.612995 0.480000
vt 0.431002 0.681010
vt 0.661010 0.480000
vt 0.000000 0.000000
vt 0.000000 0.500000
vt 0.510000 0.510000
vn 0.000000 -1.000000 0.000000
vn 0.000000 1.000000 0.000000
vn -1.000000 0.000000 -0.000000
vn 0.000000 0.000000 -1.000000
vn 1.000000 -0.000000 0.000000
vn 0.000000 0.000000 1.000000
s off
f 1/1/1 2/2/1 3/3/1
f 8/4/2 7/3/2 6/2/2
f 5/5/3 6/6/3 2/7/3
f 6/8/4 7/9/4 3/10/4
f 7/6/5 8/5/5 4/11/5
f 1/12/6 4/10/6 8/9/6
f 9/13/1 10/14/1 11/15/1
f 16/16/2 15/15/2 14/14/2
f 9/17/3 13/18/3 14/19/3
f 14/20/4 15/21/4 11/22/4
f 15/19/5 16/18/5 12/17/5
f 9/23/6 12/22/6 16/21/6
f 18/24/1 19/25/1 20/26/1
f 24/26/2 23/25/2 22/24/2
f 17/27/3 21/28/3 22/29/3
f 22/30/4 23/31/4 19/32/4
f 23/29/5 24/28/5 20/27/5
f 17/33/6 20/32/6 24/31/6
f 25/34/1 26/35/1 27/36/1
f 32/37/2 31/36/2 30/35/2
f 29/38/3 30/39/3 26/40/3
f 30/41/4 31/42/4 27/43/4
f 31/39/5 32/38/5 28/44/5
f 25/45/6 28/43/6 32/42/6
f 34/46/1 35/47/1 36/48/1
f 40/48/2 39/47/2 38/46/2
f 33/49/3 37/50/3 38/51/3
f 34/52/4 38/53/4 39/54/4
f 39/51/5 40/50/5 36/49/5
f 33/52/6 36/55/6 40/54/6
f 42/56/2 44/57/2 43/58/2
f 44/59/4 48/60/4 47/61/4
f 41/62/6 45/63/6 46/61/6
f 43/59/3 47/60/3 45/61/3
f 46/61/5 48/60/5 44/59/5
f 50/64/1 51/65/1 52/66/1
f 56/66/2 55/65/2 54/64/2
f 53/67/3 54/68/3 50/69/3
f 54/67/4 55/68/4 51/69/4
f 55/68/5 56/67/5 52/70/5
f 49/70/6 52/69/6 56/68/6
f 4/4/1 1/1/1 3/3/1
f 5/1/2 8/4/2 6/2/2
f 1/11/3 5/5/3 2/7/3
f 2/12/4 6/8/4 3/10/4
f 3/7/5 7/6/5 4/11/5
f 5/8/6 1/12/6 8/9/6
f 12/16/1 9/13/1 11/15/1
f 13/13/2 16/16/2 14/14/2
f 10/71/3 9/17/3 14/19/3
f 10/23/4 14/20/4 11/22/4
f 11/71/5 15/19/5 12/17/5
f 13/20/6 9/23/6 16/21/6
f 17/72/1 18/24/1 20/26/1
f 21/72/2 24/26/2 22/24/2
f 18/73/3 17/27/3 22/29/3
f 18/33/4 22/30/4 19/32/4
f 19/73/5 23/29/5 20/27/5
f 21/30/6 17/33/6 24/31/6
f 28/37/1 25/34/1 27/36/1
f 29/34/2 32/37/2 30/35/2
f 25/44/3 29/38/3 26/40/3
f 26/45/4 30/41/4 27/43/4
f 27/40/5 31/39/5 28/44/5
f 29/41/6 25/45/6 32/42/6
f 33/74/1 34/46/1 36/48/1
f 37/74/2 40/48/2 38/46/2
f 34/75/3 33/49/3 38/51/3
f 35/55/4 34/52/4 39/54/4
f 35/75/5 39/51/5 36/49/5
f 37/53/6 33/52/6 40/54/6
f 41/76/2 42/56/2 43/58/2
f 43/77/4 44/59/4 47/61/4
f 42/77/6 41/62/6 46/61/6
f 41/77/3 43/59/3 45/61/3
f 42/77/5 46/61/5 44/59/5
f 49/78/1 50/64/1 52/66/1
f 53/78/2 56/66/2 54/64/2
f 49/70/3 53/67/3 50/69/3
f 50/70/4 54/67/4 51/69/4
f 51/69/5 55/68/5 52/70/5
f 53/67/6 49/70/6 56/68/6
