# Blender v2.72 (sub 0) OBJ File: 'Mouse.blend'
# www.blender.org
mtllib Mouse.mtl
o Mouse_Sphere
v -0.216507 0.631385 0.154879
v -0.411821 0.556834 0.117428
v -0.529264 0.428894 0.081209
v -0.522511 0.243472 0.052990
v -0.259400 0.637236 -0.072300
v -0.425796 0.573324 -0.190960
v -0.559522 0.450896 -0.386902
v -0.568598 0.260752 -0.445497
v -0.256259 0.648556 -0.235442
v -0.430146 0.603817 -0.523337
v -0.499940 0.488991 -0.681131
v -0.560145 0.286875 -0.791369
v 0.020940 0.487028 -0.748981
v -0.020939 0.487028 -0.748981
v 0.020875 0.599509 -0.573293
v -0.020874 0.599509 -0.573293
v 0.256260 0.648556 -0.235442
v 0.430147 0.603817 -0.523337
v 0.499941 0.488991 -0.681131
v 0.560145 0.286875 -0.791369
v 0.259401 0.637236 -0.072300
v 0.425797 0.573324 -0.190959
v 0.559523 0.450896 -0.386902
v 0.621221 0.260752 -0.445497
v 0.216508 0.631385 0.154879
v 0.411822 0.556834 0.117428
v 0.523970 0.428895 0.081209
v 0.623488 0.243472 0.052990
v 0.187501 0.637236 0.375441
v 0.356648 0.573324 0.530530
v 0.490884 0.450896 0.588375
v 0.577069 0.260752 0.595968
v 0.108254 0.648556 0.527412
v 0.205911 0.603817 0.736949
v 0.283412 0.488990 0.866397
v 0.333171 0.286875 0.904262
v 0.000000 0.654045 0.580539
v 0.000000 0.617940 0.776040
v 0.000000 0.505325 0.923815
v 0.000000 0.295991 0.973888
v 0.000000 0.654723 0.172964
v -0.108253 0.648556 0.527412
v -0.205910 0.603817 0.736949
v -0.283412 0.488990 0.866397
v -0.333170 0.286875 0.904262
v -0.187501 0.637236 0.375441
v -0.356648 0.573324 0.530530
v -0.470655 0.450896 0.588375
v -0.540736 0.260752 0.595968
v -0.614958 0.049978 0.081365
v -0.663127 -0.003174 0.095786
v -0.697891 0.009378 0.098678
v -0.607719 0.049435 -0.470591
v -0.601904 -0.004868 -0.469987
v -0.636337 0.012237 -0.472943
v -0.583806 0.051397 -0.844780
v -0.543659 -0.000287 -0.813915
v -0.574187 0.014970 -0.840568
v 0.000000 0.636500 -0.054658
v -0.020793 0.635412 -0.067152
v 0.020794 0.635412 -0.067152
v 0.583807 0.051397 -0.844780
v 0.543659 -0.000287 -0.813915
v 0.574187 0.014970 -0.840568
v 0.646936 0.049435 -0.470591
v 0.601905 -0.004868 -0.469986
v 0.636337 0.012237 -0.472943
v 0.650743 0.044644 0.034427
v 0.605702 -0.003174 0.027530
v 0.640465 0.009378 0.030422
v 0.600945 0.049525 0.569330
v 0.558095 -0.002386 0.540723
v 0.590806 0.012990 0.558262
v 0.347240 0.051480 0.884982
v 0.321233 -0.000405 0.834367
v 0.340897 0.014959 0.868411
v 0.000000 0.051553 0.964034
v 0.000000 -0.000000 0.908816
v 0.000000 0.015100 0.947000
v -0.347239 0.051480 0.884982
v -0.321233 -0.000405 0.834367
v -0.340896 0.014959 0.868411
v -0.600944 0.049525 0.569330
v -0.590875 -0.002386 0.540723
v -0.623586 0.012990 0.558261
v 0.020794 0.652991 -0.062167
v -0.020793 0.652991 -0.062167
v 0.000000 0.654079 -0.049673
v -0.020874 0.617089 -0.600610
v 0.020875 0.617089 -0.600610
v -0.020939 0.504607 -0.776298
v 0.020940 0.504607 -0.776298
v -0.020874 0.295652 -0.921603
v 0.020874 0.295652 -0.921603
v 0.020912 0.051607 -0.978103
v -0.020911 0.051607 -0.978103
v -0.020917 0.000256 -0.936870
v 0.020918 0.000256 -0.936870
v -0.020916 0.015112 -0.970975
v 0.020917 0.015112 -0.970975
v -0.020874 0.278072 -0.894287
v 0.020874 0.278072 -0.894287
v 0.020912 0.034028 -0.950786
v -0.020911 0.034028 -0.950786
v -0.020916 0.017848 -0.943658
v 0.020917 0.017848 -0.943658
v -0.256259 0.648556 -0.235442
v -0.430146 0.603817 -0.523337
v -0.499940 0.488991 -0.681131
v -0.560145 0.286875 -0.791369
v 0.256260 0.648556 -0.235442
v 0.430147 0.603817 -0.523337
v 0.499941 0.488991 -0.681131
v 0.560145 0.286875 -0.791369
v -0.636337 0.012237 -0.472943
v -0.697891 0.009378 0.098678
v -0.601904 -0.004868 -0.469987
v -0.663127 -0.003174 0.095786
v -0.583806 0.051397 -0.844780
v -0.574187 0.014970 -0.840568
v -0.543659 -0.000287 -0.813915
v 0.583807 0.051397 -0.844780
v 0.601905 -0.004868 -0.469986
v 0.543659 -0.000287 -0.813915
v 0.605702 -0.003174 0.027530
v 0.558095 -0.002386 0.540723
v 0.321233 -0.000405 0.834367
v 0.000000 -0.000000 0.908816
v -0.321233 -0.000405 0.834367
v -0.590875 -0.002386 0.540723
v 0.000000 0.654079 -0.049673
v 0.020794 0.652991 -0.062167
v 0.020794 0.652991 -0.062167
v -0.020793 0.652991 -0.062167
v -0.020793 0.652991 -0.062167
v 0.020875 0.617089 -0.600610
v -0.020874 0.617089 -0.600610
v 0.020940 0.504607 -0.776298
v -0.020939 0.504607 -0.776298
v 0.020874 0.295652 -0.921603
v -0.020874 0.295652 -0.921603
v 0.020912 0.051607 -0.978103
v 0.020917 0.015112 -0.970975
v -0.020916 0.015112 -0.970975
v -0.020911 0.051607 -0.978103
v 0.020918 0.000256 -0.936870
v 0.020918 0.000256 -0.936870
v -0.020917 0.000256 -0.936870
v -0.020917 0.000256 -0.936870
vt 0.630666 0.093082
vt 0.621918 0.093077
vt 0.626308 0.089910
vt 0.129722 0.846448
vt 0.216710 0.761636
vt 0.262310 0.789820
vt 0.087646 0.813717
vt 0.147698 0.759885
vt 0.043178 0.780567
vt 0.093368 0.747091
vt 0.486975 0.423170
vt 0.613957 0.400060
vt 0.614740 0.407254
vt 0.264446 0.699123
vt 0.322827 0.721295
vt 0.210039 0.699122
vt 0.123200 0.716578
vt 0.479955 0.356442
vt 0.613052 0.345743
vt 0.637420 0.289326
vt 0.761981 0.291164
vt 0.769660 0.357245
vt 0.637194 0.241073
vt 0.748902 0.234129
vt 0.544174 0.144927
vt 0.626751 0.000202
vt 0.626332 0.084019
vt 0.854970 0.941435
vt 0.802580 0.977626
vt 0.742062 0.909101
vt 0.637424 0.345833
vt 0.761926 0.423439
vt 0.488247 0.290125
vt 0.613263 0.289193
vt 0.707741 0.145772
vt 0.784059 0.873636
vt 0.651595 0.816248
vt 0.744198 0.999798
vt 0.696462 0.937284
vt 0.689791 0.999798
vt 0.627450 0.939035
vt 0.602952 0.982342
vt 0.573120 0.951829
vt 0.757287 0.768665
vt 0.699002 0.760050
vt 0.709407 0.617616
vt 0.609475 0.852472
vt 0.567399 0.885202
vt 0.522931 0.918353
vt 0.758359 0.628388
vt 0.703755 0.528787
vt 0.639915 0.739835
vt 0.662458 0.606376
vt 0.586857 0.710642
vt 0.616686 0.600451
vt 0.535000 0.673617
vt 0.556185 0.613333
vt 0.757350 0.533580
vt 0.691448 0.440692
vt 0.656262 0.527894
vt 0.613562 0.537378
vt 0.558615 0.565538
vt 0.021933 0.623261
vt 0.101157 0.582814
vt 0.135823 0.623968
vt 0.628064 0.458543
vt 0.582769 0.490259
vt 0.541661 0.534581
vt 0.177163 0.536494
vt 0.214065 0.570415
vt 0.000202 0.561101
vt 0.073185 0.544422
vt 0.000202 0.505806
vt 0.056462 0.504004
vt 0.012931 0.446710
vt 0.048014 0.442842
vt 0.287871 0.446275
vt 0.328359 0.489079
vt 0.141028 0.504483
vt 0.109921 0.470386
vt 0.085772 0.413437
vt 0.000202 0.743046
vt 0.634821 0.088635
vt 0.501859 0.232997
vt 0.613578 0.240737
vt 0.479955 0.955873
vt 0.479955 0.636895
vt 0.061350 0.337479
vt 0.375218 0.757485
vt 0.237422 0.409469
vt 0.183076 0.382749
vt 0.123003 0.361507
vt 0.304307 0.825285
vt 0.311884 0.831803
vt 0.218793 0.923449
vt 0.319079 0.838678
vt 0.381516 0.765115
vt 0.384304 0.776063
vt 0.758187 0.431942
vt 0.635993 0.407414
vt 0.358296 0.324965
vt 0.229084 0.337074
vt 0.358292 0.012317
vt 0.750001 0.440285
vt 0.631572 0.414577
vt 0.490728 0.431803
vt 0.619296 0.414663
vt 0.791637 0.867117
vt 0.861269 0.933805
vt 0.798832 0.860242
vt 0.690986 0.781398
vt 0.698546 0.775472
vt 0.706359 0.769784
vt 0.768162 0.629910
vt 0.767458 0.769380
vt 0.778027 0.630560
vt 0.777247 0.768596
vt 0.767261 0.534816
vt 0.777840 0.535715
vt 0.765877 0.440691
vt 0.776975 0.442914
vt 0.787588 0.446440
vt 0.064624 0.684230
vt 0.142520 0.631378
vt 0.149325 0.639528
vt 0.081785 0.698718
vt 0.220934 0.577572
vt 0.227125 0.585281
vt 0.334778 0.497000
vt 0.339751 0.505469
vt 0.211233 0.917523
vt 0.171842 0.882672
vt 0.636777 0.400353
vt 0.630780 0.409404
vt 0.620200 0.404555
vt 0.620122 0.409299
vt 0.630651 0.404830
vt 0.620740 0.346902
vt 0.617802 0.088579
vt 0.631526 0.235520
vt 0.619293 0.235233
vt 0.630046 0.287437
vt 0.620663 0.287324
vt 0.629717 0.346992
vt 0.226606 0.929136
vt 0.229081 0.000202
vt 0.095800 0.023697
vt 0.019537 0.085213
vt 0.000202 0.168641
vt 0.095803 0.313582
vt 0.479551 0.174072
vt 0.447624 0.309834
vt 0.447621 0.027445
vt 0.479551 0.163207
vt 0.498982 0.440287
vt 0.019538 0.252068
vt 0.864057 0.922858
vt 0.072810 0.692047
vn -0.684000 0.641400 -0.347500
vn 0.684000 0.641400 -0.347500
vn 0.000000 0.678500 -0.734500
vn -0.941000 0.324400 0.095700
vn -0.904500 0.426400 0.001300
vn -0.992700 0.120600 0.001500
vn -0.576400 0.814800 0.061200
vn -0.583000 0.809400 0.070300
vn -0.237500 0.970900 0.030200
vn -0.279300 0.956800 0.080200
vn -0.232800 0.044000 -0.971500
vn -0.230500 0.016400 -0.972900
vn -0.186700 -0.583900 -0.790000
vn -0.890000 0.446600 -0.091900
vn -0.986000 0.159300 -0.048800
vn -0.817100 0.573200 0.061100
vn -0.271100 0.961100 0.053200
vn -0.214800 0.377000 -0.901000
vn -0.219200 0.389400 -0.894600
vn 0.171900 0.694600 -0.698600
vn 0.164300 0.667500 -0.726200
vn 0.214800 0.377000 -0.901000
vn 0.096400 0.936500 -0.337100
vn 0.084800 0.923600 -0.373900
vn 0.000000 0.999900 0.009100
vn 0.000000 0.999900 -0.013100
vn 0.983200 -0.077000 -0.165700
vn 0.961900 0.225700 -0.154100
vn 0.969700 0.235200 -0.065700
vn 0.219200 0.389400 -0.894600
vn 0.232800 0.044000 -0.971500
vn -0.164300 0.667500 -0.726200
vn -0.171900 0.694600 -0.698600
vn 0.271100 0.961100 0.053200
vn 0.993800 -0.068500 -0.087300
vn 0.954300 0.296800 0.034300
vn 0.890000 0.446600 -0.091900
vn 0.848100 0.529700 -0.010400
vn 0.817100 0.573200 0.061100
vn 0.583000 0.809400 0.070300
vn 0.279300 0.956800 0.080200
vn 0.996000 -0.079700 0.040800
vn 0.908900 0.220100 0.354200
vn 0.830000 0.554900 0.054800
vn 0.585500 0.808200 0.063700
vn 0.237500 0.970900 0.030200
vn 0.918100 -0.143700 0.369200
vn 0.525700 0.120600 0.842000
vn 0.774200 0.577400 0.259200
vn 0.507400 0.853300 0.119800
vn 0.226800 0.973800 0.015700
vn 0.516500 -0.226600 0.825800
vn 0.000000 0.092400 0.995700
vn 0.463500 0.540200 0.702300
vn 0.307200 0.888200 0.341500
vn 0.155900 0.985400 0.067500
vn -0.545900 0.133400 0.827100
vn -0.507900 -0.219000 0.833100
vn 0.000000 0.535500 0.844500
vn 0.000000 0.908200 0.418400
vn 0.000000 0.993100 0.117500
vn -0.916700 0.287900 0.277200
vn -0.875900 0.315800 0.364600
vn -0.483800 0.534200 0.693100
vn -0.311100 0.887000 0.341100
vn -0.155900 0.985400 0.067500
vn -0.973000 0.222800 0.059800
vn -0.726100 0.687500 0.010200
vn -0.826600 0.506800 0.244800
vn -0.531500 0.836700 0.132300
vn -0.226800 0.973800 0.015700
vn -0.003900 0.994000 -0.109400
vn -0.164200 0.954900 -0.247600
vn -0.084800 0.923600 -0.373900
vn -0.096400 0.936500 -0.337100
vn -0.994200 -0.041700 -0.099600
vn -0.905100 0.422100 -0.051900
vn -0.804100 0.590400 -0.069300
vn -0.464800 0.885400 0.006100
vn -0.340800 -0.940000 0.015000
vn -0.439400 -0.895900 -0.065900
vn -0.435900 -0.897600 -0.066300
vn -0.949200 -0.269400 -0.162500
vn -0.283700 -0.672700 -0.683400
vn -0.246900 -0.935500 -0.252700
vn 0.566900 -0.598500 -0.566100
vn 0.186700 -0.583900 -0.790000
vn 0.000500 -1.000000 -0.004000
vn 0.000000 -1.000000 0.002500
vn -0.000400 -1.000000 -0.003900
vn 0.246900 -0.935500 -0.252700
vn 0.093600 -0.912600 -0.398100
vn -0.093600 -0.912600 -0.398100
vn 0.775000 -0.627500 -0.074700
vn 0.437600 -0.898100 -0.044400
vn 0.733400 -0.679000 0.032400
vn 0.339700 -0.940300 0.018900
vn 0.703500 -0.657100 0.270800
vn 0.359300 -0.922900 0.138800
vn 0.388400 -0.694400 0.605700
vn 0.193800 -0.931300 0.308400
vn 0.000000 -0.231000 0.972900
vn 0.000000 -0.702500 0.711600
vn -0.000000 -0.929900 0.367900
vn -0.366000 -0.698500 0.614900
vn -0.181100 -0.931400 0.315700
vn -0.876900 -0.326800 0.352400
vn -0.344800 -0.923900 0.165900
vn -0.340200 -0.940300 0.012200
vn -1.000000 -0.000200 -0.000100
vn -1.000000 -0.000100 0.000000
vn -0.701900 -0.271900 -0.658300
vn 1.000000 -0.000200 -0.000100
vn 0.785400 -0.058200 -0.616200
vn 0.701900 -0.271900 -0.658300
vn 1.000000 -0.000100 0.000000
vn 0.450100 -0.321500 -0.833100
vn -0.450100 -0.321500 -0.833100
vn -1.000000 0.000100 0.000000
vn -0.785400 -0.058200 -0.616200
vn 1.000000 0.000100 0.000000
vn 0.752200 0.267300 -0.602300
vn 0.164200 0.954900 -0.247600
vn 0.003900 0.994000 -0.109400
vn -0.767100 0.608800 -0.202100
vn 0.767100 0.608800 -0.202100
vn -0.753900 0.473200 -0.455600
vn 0.753900 0.473200 -0.455600
vn -0.752200 0.267300 -0.602300
vn 1.000000 0.000000 0.000000
vn 1.000000 -0.000300 -0.000200
vn -1.000000 0.000000 0.000000
vn 0.807000 0.161100 -0.568100
vn -1.000000 -0.000300 -0.000200
vn -0.000000 0.272800 -0.962100
vn -0.807000 0.161100 -0.568100
vn 0.192000 -0.952500 -0.236400
vn 0.230500 0.016400 -0.972900
vn -0.191900 -0.952500 -0.236500
vn 0.000100 -1.000000 0.002400
vn 0.000000 -1.000000 0.003300
vn -0.000400 -1.000000 0.007100
vn 0.000000 -1.000000 0.006600
vn 0.000300 -0.999900 -0.011400
vn 0.002200 -0.999900 -0.013700
vn -0.002200 -0.999900 -0.013700
vn -0.000300 -0.999900 -0.011400
vn 0.000400 -1.000000 0.007000
g Mouse_Sphere_Material
usemtl Material
s 1
f 61/1/1 60/2/2 59/3/3
f 3/4/4 7/5/5 8/6/6
f 2/7/7 6/8/8 7/5/5
f 1/9/9 5/10/10 6/8/8
f 119/11/11 145/12/12 144/13/13
f 7/5/5 11/14/14 12/15/15
f 6/8/8 10/16/16 11/14/14
f 5/10/10 9/17/17 10/16/16
f 119/11/11 110/18/18 93/19/19
f 92/20/20 19/21/21 20/22/22
f 90/23/23 112/24/24 19/21/21
f 9/25/17 41/26/25 88/27/26
f 122/28/27 114/29/28 24/30/29
f 94/31/30 20/22/22 62/32/31
f 110/18/18 109/33/32 91/34/33
f 88/27/26 41/26/25 17/35/34
f 65/36/35 24/30/29 28/37/36
f 114/29/28 113/38/37 23/39/38
f 113/38/37 18/40/39 22/41/40
f 18/40/39 17/42/34 21/43/41
f 68/44/42 28/45/36 32/46/43
f 24/30/29 23/39/38 27/47/44
f 23/39/38 22/41/40 26/48/45
f 22/41/40 21/43/41 25/49/46
f 71/50/47 32/46/43 36/51/48
f 28/45/36 27/52/44 31/53/49
f 27/52/44 26/54/45 30/55/50
f 25/56/46 29/57/51 30/55/50
f 74/58/52 36/51/48 40/59/53
f 32/46/43 31/53/49 35/60/54
f 31/53/49 30/55/50 34/61/55
f 29/57/51 33/62/56 34/61/55
f 40/63/53 45/64/57 80/65/58
f 36/51/48 35/60/54 39/66/59
f 35/60/54 34/61/55 38/67/60
f 33/62/56 37/68/61 38/67/60
f 45/64/57 49/69/62 83/70/63
f 39/71/59 44/72/64 45/64/57
f 38/73/60 43/74/65 44/72/64
f 38/73/60 37/75/61 42/76/66
f 49/69/62 4/77/67 50/78/68
f 44/72/64 48/79/69 49/69/62
f 44/72/64 43/74/65 47/80/70
f 43/74/65 42/76/66 46/81/71
f 1/9/9 41/82/25 5/10/10
f 5/10/10 41/82/25 9/17/17
f 132/83/72 111/35/73 112/24/24
f 109/33/32 108/84/74 89/85/75
f 17/42/34 41/86/25 21/43/41
f 21/43/41 41/86/25 25/49/46
f 25/56/46 41/87/25 29/57/51
f 29/57/51 41/87/25 33/62/56
f 33/62/56 41/87/25 37/68/61
f 37/75/61 41/88/25 42/76/66
f 42/76/66 41/88/25 46/81/71
f 8/6/6 12/15/15 56/89/76
f 48/79/69 3/90/4 4/77/67
f 47/80/70 2/91/7 3/90/4
f 47/80/70 46/81/71 1/92/9
f 46/81/71 41/88/25 1/92/9
f 53/93/77 55/94/78 52/95/79
f 116/95/80 115/94/81 54/96/82
f 56/89/76 120/97/83 55/94/78
f 58/97/84 57/98/85 54/96/82
f 62/32/31 64/99/86 100/100/87
f 123/101/88 125/102/89 117/103/90
f 64/99/86 63/104/91 146/105/92
f 58/106/84 144/13/13 148/107/93
f 65/36/35 67/108/94 64/109/86
f 64/109/86 67/108/94 66/110/95
f 68/111/42 70/112/96 67/108/94
f 70/112/96 69/113/97 66/110/95
f 71/50/47 73/114/98 70/115/96
f 73/114/98 72/116/99 69/117/97
f 74/58/52 76/118/100 73/114/98
f 76/118/100 75/119/101 72/116/99
f 77/120/102 79/121/103 76/118/100
f 76/118/100 79/121/103 78/122/104
f 77/123/102 80/65/58 82/124/105
f 82/124/105 81/125/106 78/126/104
f 80/65/58 83/70/63 85/127/107
f 82/124/105 85/127/107 84/128/108
f 83/70/63 50/78/68 52/129/79
f 85/127/107 116/129/80 51/130/109
f 50/131/68 4/132/67 8/6/6
f 95/133/110 143/100/111 106/134/112
f 96/12/113 104/135/114 105/136/115
f 99/13/116 105/136/115 149/107/117
f 98/105/118 149/107/117 105/136/115
f 140/31/119 95/133/110 103/137/120
f 141/19/121 101/138/122 104/135/114
f 108/84/74 107/25/123 134/139/124
f 61/1/1 15/140/125 16/141/126
f 13/142/127 14/143/128 16/141/126
f 102/144/129 101/138/122 14/143/128
f 106/134/112 105/136/115 104/135/114
f 98/105/118 106/134/112 143/100/111
f 102/144/129 103/137/120 104/135/114
f 141/19/121 139/34/130 14/143/128
f 140/31/119 102/144/129 13/142/127
f 139/34/130 137/85/131 16/141/126
f 138/20/132 13/142/127 15/140/125
f 137/85/131 135/139/133 60/2/2
f 136/23/134 15/140/125 61/1/1
f 131/27/135 59/3/3 60/2/2
f 131/27/135 133/83/136 61/1/1
f 4/132/67 3/4/4 8/6/6
f 3/4/4 2/7/7 7/5/5
f 2/7/7 1/9/9 6/8/8
f 58/106/84 119/11/11 144/13/13
f 8/6/6 7/5/5 12/15/15
f 7/5/5 6/8/8 11/14/14
f 6/8/8 5/10/10 10/16/16
f 145/12/12 119/11/11 93/19/19
f 94/31/30 92/20/20 20/22/22
f 92/20/20 90/23/23 19/21/21
f 87/139/137 9/25/17 88/27/26
f 65/36/35 122/28/27 24/30/29
f 142/133/138 94/31/30 62/32/31
f 93/19/19 110/18/18 91/34/33
f 86/83/139 88/27/26 17/35/34
f 68/111/42 65/36/35 28/37/36
f 24/30/29 114/29/28 23/39/38
f 23/39/38 113/38/37 22/41/40
f 22/41/40 18/40/39 21/43/41
f 71/50/47 68/44/42 32/46/43
f 28/37/36 24/30/29 27/47/44
f 27/47/44 23/39/38 26/48/45
f 26/48/45 22/41/40 25/49/46
f 74/58/52 71/50/47 36/51/48
f 32/46/43 28/45/36 31/53/49
f 31/53/49 27/52/44 30/55/50
f 26/54/45 25/56/46 30/55/50
f 77/120/102 74/58/52 40/59/53
f 36/51/48 32/46/43 35/60/54
f 35/60/54 31/53/49 34/61/55
f 30/55/50 29/57/51 34/61/55
f 77/123/102 40/63/53 80/65/58
f 40/59/53 36/51/48 39/66/59
f 39/66/59 35/60/54 38/67/60
f 34/61/55 33/62/56 38/67/60
f 80/65/58 45/64/57 83/70/63
f 40/63/53 39/71/59 45/64/57
f 39/71/59 38/73/60 44/72/64
f 43/74/65 38/73/60 42/76/66
f 83/70/63 49/69/62 50/78/68
f 45/64/57 44/72/64 49/69/62
f 48/79/69 44/72/64 47/80/70
f 47/80/70 43/74/65 46/81/71
f 90/23/23 132/83/72 112/24/24
f 91/34/33 109/33/32 89/85/75
f 53/93/77 8/6/6 56/89/76
f 49/69/62 48/79/69 4/77/67
f 48/79/69 47/80/70 3/90/4
f 2/91/7 47/80/70 1/92/9
f 50/131/68 53/93/77 52/95/79
f 51/145/109 116/95/80 54/96/82
f 53/93/77 56/89/76 55/94/78
f 115/94/81 58/97/84 54/96/82
f 142/133/138 62/32/31 100/100/87
f 118/146/140 125/102/89 130/147/141
f 129/148/142 130/147/141 128/149/143
f 130/147/141 125/102/89 126/150/141
f 147/151/144 123/101/88 117/103/90
f 124/152/145 123/101/88 147/151/144
f 117/103/90 121/153/146 97/154/147
f 117/103/90 125/102/89 118/146/140
f 57/155/85 58/106/84 148/107/93
f 100/100/87 64/99/86 146/105/92
f 97/154/147 147/151/144 117/103/90
f 126/150/141 127/156/148 128/149/143
f 130/147/141 126/150/141 128/149/143
f 122/28/27 65/36/35 64/109/86
f 63/157/91 64/109/86 66/110/95
f 65/36/35 68/111/42 67/108/94
f 67/108/94 70/112/96 66/110/95
f 68/44/42 71/50/47 70/115/96
f 70/115/96 73/114/98 69/117/97
f 71/50/47 74/58/52 73/114/98
f 73/114/98 76/118/100 72/116/99
f 74/58/52 77/120/102 76/118/100
f 75/119/101 76/118/100 78/122/104
f 79/158/103 77/123/102 82/124/105
f 79/158/103 82/124/105 78/126/104
f 82/124/105 80/65/58 85/127/107
f 81/125/106 82/124/105 84/128/108
f 85/127/107 83/70/63 52/129/79
f 84/128/108 85/127/107 51/130/109
f 53/93/77 50/131/68 8/6/6
f 103/137/120 95/133/110 106/134/112
f 99/13/116 96/12/113 105/136/115
f 106/134/112 98/105/118 105/136/115
f 102/144/129 140/31/119 103/137/120
f 96/12/113 141/19/121 104/135/114
f 89/85/75 108/84/74 134/139/124
f 60/2/2 61/1/1 16/141/126
f 15/140/125 13/142/127 16/141/126
f 13/142/127 102/144/129 14/143/128
f 103/137/120 106/134/112 104/135/114
f 101/138/122 102/144/129 104/135/114
f 101/138/122 141/19/121 14/143/128
f 138/20/132 140/31/119 13/142/127
f 14/143/128 139/34/130 16/141/126
f 136/23/134 138/20/132 15/140/125
f 16/141/126 137/85/131 60/2/2
f 133/83/136 136/23/134 61/1/1
f 135/139/133 131/27/135 60/2/2
f 59/3/3 131/27/135 61/1/1
