# Blender v2.72 (sub 0) OBJ File: 'Light.blend'
# www.blender.org
mtllib Light.mtl
o Sphere
v -0.500000 0.702132 0.000000
v -0.866025 0.336106 0.000000
v -1.000000 -0.058858 0.000000
v -0.866025 -0.500000 0.000000
v -0.627648 -0.866025 -0.000000
v -0.250000 0.702132 -0.433013
v -0.433013 0.336106 -0.750000
v -0.500000 -0.000000 -0.866025
v -0.433013 -0.500000 -0.750000
v -0.313824 -0.866025 -0.543559
v -0.000000 0.836106 0.000000
v 0.250000 0.702132 -0.433013
v 0.433013 0.336106 -0.750000
v 0.500000 -0.000000 -0.866025
v 0.433013 -0.500000 -0.750000
v 0.313824 -0.866025 -0.543559
v 0.500000 0.702132 0.000000
v 0.866025 0.336106 0.000000
v 1.000000 -0.000000 0.000000
v 0.866025 -0.500000 0.000000
v 0.627648 -0.866025 0.000000
v 0.250000 0.702132 0.433013
v 0.433012 0.336106 0.750000
v 0.500000 -0.058858 0.866026
v 0.433012 -0.500000 0.750000
v 0.313824 -0.866025 0.543559
v -0.250000 0.702132 0.433013
v -0.433013 0.336106 0.750000
v -0.500000 -0.058858 0.866025
v -0.433013 -0.500000 0.750000
v -0.313824 -0.866025 0.543559
v -0.627648 -2.100807 -0.000000
v -0.313824 -2.100807 -0.543559
v 0.313824 -2.100807 -0.543559
v 0.627648 -2.100807 0.000000
v 0.313824 -2.100807 0.543559
v -0.313824 -2.100807 0.543559
v -0.000000 -2.263649 0.000000
v -0.627648 -0.866025 -0.000000
v -0.313824 -0.866025 -0.543559
v 0.313824 -0.866025 -0.543559
v 0.627648 -0.866025 0.000000
v 0.313824 -0.866025 0.543559
v -0.313824 -0.866025 0.543559
v -0.627648 -2.100807 -0.000000
v -0.313824 -2.100807 -0.543559
v 0.313824 -2.100807 -0.543559
v 0.627648 -2.100807 0.000000
v 0.313824 -2.100807 0.543559
v -0.313824 -2.100807 0.543559
vt 0.000114 0.264801
vt 0.154035 0.291383
vt 0.141790 0.383414
vt 0.015704 0.146592
vt 0.178296 0.224974
vt 0.094753 0.045899
vt 0.214594 0.167640
vt 0.230201 0.000115
vt 0.269813 0.112781
vt 0.263709 0.323852
vt 0.247705 0.419400
vt 0.281286 0.265792
vt 0.300572 0.215690
vt 0.324406 0.159849
vt 0.369986 0.345431
vt 0.364731 0.453173
vt 0.377139 0.284596
vt 0.382465 0.232979
vt 0.383637 0.175587
vt 0.487093 0.348519
vt 0.480364 0.279247
vt 0.469044 0.222037
vt 0.445656 0.163729
vt 0.629765 0.327036
vt 0.652826 0.469962
vt 0.604944 0.238799
vt 0.566462 0.170214
vt 0.506100 0.115450
vt 0.239289 0.946103
vt 0.366390 0.753065
vt 0.478834 0.756392
vt 0.386980 0.055736
vt 0.157373 0.881398
vt 0.309514 0.722133
vt 0.088545 0.801006
vt 0.276210 0.680506
vt 0.037708 0.703672
vt 0.260862 0.629091
vt 0.008535 0.592281
vt 0.268354 0.563818
vt 0.000114 0.471314
vt 0.327547 0.471314
vt 0.868672 0.281958
vt 0.826171 0.470701
vt 0.815223 0.115514
vt 0.690047 0.014183
vt 0.540627 0.000114
vt 0.379754 0.625923
vt 0.031799 0.374559
vt 0.499573 0.471085
vt 0.323713 0.999886
vn -0.914900 -0.403700 -0.003400
vn -0.460500 -0.389700 -0.797500
vn -0.419000 -0.545700 -0.725700
vn -0.999900 0.012100 -0.002500
vn -0.502100 0.056800 -0.862900
vn -0.867400 0.497600 0.000000
vn -0.431600 0.519400 -0.737500
vn -0.558500 0.829500 0.000000
vn -0.279200 0.829500 -0.483700
vn 0.460500 -0.389700 -0.797500
vn 0.419000 -0.545700 -0.725700
vn 0.499300 0.053600 -0.864800
vn 0.426400 0.522000 -0.738600
vn 0.279200 0.829500 -0.483700
vn 0.920900 -0.389700 0.000000
vn 0.838000 -0.545700 0.000000
vn 0.998400 0.056800 0.003300
vn 0.854500 0.519400 0.004900
vn 0.558500 0.829500 0.000000
vn 0.460300 -0.403700 0.790600
vn 0.502100 0.012100 0.864700
vn 0.433700 0.497600 0.751200
vn 0.279200 0.829500 0.483700
vn -0.456900 -0.406000 0.791400
vn -0.419000 -0.545700 0.725700
vn -0.499900 0.014700 0.865900
vn -0.433700 0.497600 0.751200
vn -0.279200 0.829500 0.483700
vn -0.500000 0.000000 -0.866000
vn -1.000000 0.000000 -0.000000
vn 0.000000 1.000000 0.000000
vn 0.500000 0.000000 -0.866000
vn 1.000000 0.000000 0.000000
vn 0.500000 0.000000 0.866000
vn -0.500000 0.000000 0.866000
vn -0.838000 -0.545700 -0.000000
vn 0.000000 -1.000000 0.000000
vn -0.251100 -0.968000 0.000000
vn -0.125600 -0.968000 -0.217500
vn 0.125600 -0.968000 -0.217500
vn 0.251100 -0.968000 0.000000
vn 0.125600 -0.968000 0.217500
vn -0.125600 -0.968000 0.217500
vn 0.419000 -0.545700 0.725700
g Sphere_Sphere_Material.001
usemtl Material.001
s 1
f 4/1/1 9/2/2 10/3/3
f 4/1/1 3/4/4 8/5/5
f 3/4/4 2/6/6 7/7/7
f 2/6/6 1/8/8 6/9/9
f 9/2/2 15/10/10 16/11/11
f 8/5/5 14/12/12 15/10/10
f 7/7/7 13/13/13 14/12/12
f 6/9/9 12/14/14 13/13/13
f 15/10/10 20/15/15 21/16/16
f 15/10/10 14/12/12 19/17/17
f 13/13/13 18/18/18 19/17/17
f 12/14/14 17/19/19 18/18/18
f 21/16/16 20/15/15 25/20/20
f 19/17/17 24/21/21 25/20/20
f 18/18/18 23/22/22 24/21/21
f 17/19/19 22/23/23 23/22/22
f 25/20/20 30/24/24 31/25/25
f 24/21/21 29/26/26 30/24/24
f 23/22/22 28/27/27 29/26/26
f 22/23/23 27/28/28 28/27/27
f 40/29/29 33/30/29 32/31/30
f 1/8/8 11/32/31 6/9/9
f 41/33/32 34/34/32 33/30/29
f 6/9/9 11/32/31 12/14/14
f 42/35/33 35/36/33 34/34/32
f 12/14/14 11/32/31 17/19/19
f 43/37/34 36/38/34 35/36/33
f 17/19/19 11/32/31 22/23/23
f 44/39/35 37/40/35 36/38/34
f 22/23/23 11/32/31 27/28/28
f 39/41/30 32/42/30 37/40/35
f 30/24/24 4/43/1 5/44/36
f 29/26/26 3/45/4 4/43/1
f 29/26/26 28/27/27 2/46/6
f 27/28/28 1/47/8 2/46/6
f 27/28/28 11/32/31 1/47/8
f 38/48/37 45/31/38 46/30/39
f 38/48/37 46/30/39 47/34/40
f 38/48/37 47/34/40 48/36/41
f 38/48/37 48/36/41 49/38/42
f 38/48/37 49/38/42 50/40/43
f 38/48/37 50/40/43 45/42/38
f 5/49/36 4/1/1 10/3/3
f 9/2/2 4/1/1 8/5/5
f 8/5/5 3/4/4 7/7/7
f 7/7/7 2/6/6 6/9/9
f 10/3/3 9/2/2 16/11/11
f 9/2/2 8/5/5 15/10/10
f 8/5/5 7/7/7 14/12/12
f 7/7/7 6/9/9 13/13/13
f 16/11/11 15/10/10 21/16/16
f 20/15/15 15/10/10 19/17/17
f 14/12/12 13/13/13 19/17/17
f 13/13/13 12/14/14 18/18/18
f 26/50/44 21/16/16 25/20/20
f 20/15/15 19/17/17 25/20/20
f 19/17/17 18/18/18 24/21/21
f 18/18/18 17/19/19 23/22/22
f 26/50/44 25/20/20 31/25/25
f 25/20/20 24/21/21 30/24/24
f 24/21/21 23/22/22 29/26/26
f 23/22/22 22/23/23 28/27/27
f 39/51/30 40/29/29 32/31/30
f 40/29/29 41/33/32 33/30/29
f 41/33/32 42/35/33 34/34/32
f 42/35/33 43/37/34 35/36/33
f 43/37/34 44/39/35 36/38/34
f 44/39/35 39/41/30 37/40/35
f 31/25/25 30/24/24 5/44/36
f 30/24/24 29/26/26 4/43/1
f 3/45/4 29/26/26 2/46/6
f 28/27/27 27/28/28 2/46/6
