# Blender v2.72 (sub 0) OBJ File: 'TestCube.blend'
# www.blender.org
o Bein_Mesh.001
v 0.433248 0.214112 0.060376
v 0.745379 0.885353 1.683591
v -0.745380 0.885353 1.683590
v -0.433248 0.214112 0.060376
v 0.355153 2.167272 1.021382
v 0.497449 1.980449 1.683591
v -0.497450 1.980449 1.683591
v -0.355152 2.167272 1.021382
v 0.355153 2.653210 1.383790
v 0.497449 2.089376 1.778142
v -0.497450 2.089376 1.778142
v -0.355152 2.653211 1.383790
v 0.355153 2.773219 1.934974
v 0.497449 2.086011 1.969155
v -0.497450 2.086011 1.969155
v -0.355152 2.773219 1.934973
v 1.267121 3.418728 2.286853
v 1.406282 1.473604 2.282787
v -1.406284 1.473605 2.282787
v -1.267119 3.418728 2.286853
vt 0.086383 0.822560
vt 0.236904 0.822560
vt 0.205388 0.999915
vt 0.197503 0.219872
vt 0.263950 0.244724
vt 0.265003 0.259250
vt 0.205388 0.000085
vt 0.323201 0.136350
vt 0.266871 0.234734
vt 0.111416 0.711989
vt 0.125784 0.219872
vt 0.117899 0.000085
vt 0.056415 0.234734
vt 0.197503 0.281080
vt 0.263191 0.307874
vt 0.267529 0.326669
vt 0.111416 0.697425
vt 0.211870 0.697425
vt 0.125784 0.281080
vt 0.058283 0.259250
vt 0.323372 0.335542
vt 0.333416 0.265314
vt 0.426159 0.197156
vt 0.111416 0.678136
vt 0.211870 0.678136
vt 0.197503 0.338036
vt 0.125784 0.338036
vt 0.055758 0.326669
vt 0.033703 0.412267
vt 0.289583 0.412267
vt 0.303634 0.608665
vt 0.019652 0.608665
vt 0.426159 0.138472
vt 0.323372 0.196985
vt 0.323372 0.000085
vt 0.117898 0.999915
vt 0.211870 0.711989
vt 0.000085 0.136350
vt 0.059337 0.244724
vt 0.426159 0.394055
vt 0.060096 0.307874
vt 0.416115 0.068244
vn -0.000000 -0.924100 0.382100
vn -0.974900 0.146100 -0.168300
vn -0.939500 0.212700 -0.268600
vn -0.000000 0.000000 1.000000
vn 0.000000 0.441500 -0.897300
vn 0.976700 0.125000 -0.174600
vn -0.968900 0.247600 0.004400
vn -0.000000 -0.655500 0.755200
vn 0.000000 0.597800 -0.801600
vn 0.977100 0.127300 -0.170600
vn -0.340400 0.023700 -0.940000
vn -0.000000 -0.999800 -0.017600
vn 0.000000 0.977100 -0.212700
vn 0.978700 0.200500 -0.043700
vn 0.000000 -0.002100 1.000000
vn -0.000000 -0.455800 -0.890100
vn 0.000000 0.478600 -0.878000
vn 0.343500 0.026500 -0.938800
vn -0.977100 0.127300 -0.170600
vn -0.976700 0.125000 -0.174600
vn 0.939500 0.212700 -0.268600
vn -0.978700 0.200500 -0.043700
vn 0.974900 0.146100 -0.168300
vn -0.343400 0.026500 -0.938800
vn 0.968900 0.247600 0.004400
vn 0.340400 0.023700 -0.940000
s off
f 2/1/1 3/2/1 4/3/1
f 8/4/2 7/5/2 11/6/2
f 4/7/3 3/8/3 7/9/3
f 3/2/4 2/1/4 6/10/4
f 4/7/5 8/4/5 5/11/5
f 1/12/6 5/11/6 6/13/6
f 12/14/7 11/15/7 15/16/7
f 6/10/8 10/17/8 11/18/8
f 8/4/9 12/14/9 9/19/9
f 5/11/10 9/19/10 10/20/10
f 16/21/11 15/22/11 19/23/11
f 10/17/12 14/24/12 15/25/12
f 12/14/13 16/26/13 13/27/13
f 9/19/14 13/27/14 14/28/14
f 17/29/15 20/30/15 19/31/15
f 14/24/16 18/32/16 19/31/16
f 16/26/17 20/30/17 17/29/17
f 13/33/18 17/34/18 18/35/18
f 1/36/1 2/1/1 4/3/1
f 12/14/19 8/4/19 11/6/19
f 8/4/20 4/7/20 7/9/20
f 7/37/4 3/2/4 6/10/4
f 1/12/5 4/7/5 5/11/5
f 2/38/21 1/12/21 6/13/21
f 16/26/22 12/14/22 15/16/22
f 7/37/8 6/10/8 11/18/8
f 5/11/9 8/4/9 9/19/9
f 6/39/23 5/11/23 10/20/23
f 20/40/24 16/21/24 19/23/24
f 11/18/12 10/17/12 15/25/12
f 9/19/13 12/14/13 13/27/13
f 10/41/25 9/19/25 14/28/25
f 18/32/15 17/29/15 19/31/15
f 15/25/16 14/24/16 19/31/16
f 13/27/17 16/26/17 17/29/17
f 14/42/26 13/33/26 18/35/26
o Fuss_Mesh.000
v 2.146571 -1.000000 -1.000000
v 2.146571 -1.000000 1.000000
v -2.146571 -1.000000 1.000000
v -2.146570 -1.000000 -1.000000
v 0.581245 0.099465 -0.216868
v 0.999999 1.000000 1.960835
v -1.000000 1.000000 1.960834
v -0.581245 0.099465 -0.216868
vt 0.746141 0.000095
vt 0.746141 0.229430
vt 0.253859 0.229430
vt 0.566650 0.754077
vt 0.433350 0.754077
vt 0.385333 0.483857
vt 0.965485 0.089895
vt 0.999905 0.362181
vt 0.614667 0.483857
vt 0.000095 0.362181
vt 0.034515 0.089895
vt 0.253859 0.000095
vt 0.746141 0.908861
vt 0.253858 0.908861
vn 0.000000 -1.000000 0.000000
vn 0.000000 0.924100 -0.382100
vn 0.374800 0.829100 -0.414900
vn -0.000000 -0.433000 0.901400
vn -0.374800 0.829100 -0.414900
vn 0.000000 0.580200 -0.814500
vn 0.867500 0.497400 0.000000
vn -0.867500 0.497400 -0.000000
s off
f 21/43/27 22/44/27 23/45/27
f 25/46/28 28/47/28 27/48/28
f 21/43/29 25/49/29 26/50/29
f 26/51/30 27/48/30 23/45/30
f 27/52/31 28/53/31 24/54/31
f 25/46/32 21/55/32 24/56/32
f 24/54/27 21/43/27 23/45/27
f 26/51/28 25/46/28 27/48/28
f 22/44/33 21/43/33 26/50/33
f 22/44/30 26/51/30 23/45/30
f 23/45/34 27/52/34 24/54/34
f 28/47/32 25/46/32 24/56/32
