# Blender v2.72 (sub 0) OBJ File: 'Eddy.blend'
# www.blender.org
o speed_Plane
v 0.402978 0.125758 0.065582
v 0.402978 1.125758 0.065582
v -0.397022 0.625758 0.065582
v 0.002978 0.625758 0.065582
v 0.002978 0.125758 0.065582
v 0.002978 1.125758 0.065582
v 0.402978 0.125758 -0.059418
v 0.402978 1.125758 -0.059418
v -0.397022 0.625758 -0.059418
v 0.002978 0.625758 -0.059418
v 0.002978 0.125758 -0.059418
v 0.002978 1.125758 -0.059418
vt 0.493414 0.497746
vt 0.386234 0.497746
vt 0.386233 0.014219
vt 0.493414 0.981272
vt 0.386234 0.981272
vt 0.493414 0.014219
vt 0.359330 0.009089
vt 0.359330 0.491839
vt 0.359330 0.974590
vt 0.666480 0.978133
vt 0.500850 0.978133
vt 0.500850 0.021233
vt 0.359174 0.974590
vt 0.016747 0.491839
vt 0.359174 0.009089
vt 0.360230 0.974590
vt 0.017803 0.491839
vt 0.360230 0.009089
vt 0.359672 0.009089
vt 0.359672 0.974590
vt 0.017245 0.491839
vt 0.016903 0.491839
vt 0.666480 0.021233
vt 0.360230 0.491839
vn 1.000000 0.000000 0.000000
vn -1.000000 0.000000 0.000000
vn -0.780900 0.624700 0.000000
vn -0.000000 0.000000 -1.000000
vn -0.780900 -0.624700 0.000000
vn 0.000000 -0.000000 1.000000
s off
f 4/1/1 10/2/1 12/3/1
f 4/1/1 5/4/1 11/5/1
f 7/5/1 8/3/1 2/6/1
f 5/7/2 4/8/2 6/9/2
f 6/10/3 12/11/3 9/12/3
f 7/13/4 10/14/4 8/15/4
f 4/10/5 10/11/5 7/12/5
f 2/10/3 8/11/3 10/12/3
f 3/10/5 9/11/5 11/12/5
f 11/16/4 9/17/4 12/18/4
f 1/19/6 2/20/6 4/21/6
f 6/6/1 4/1/1 12/3/1
f 10/2/1 4/1/1 11/5/1
f 1/4/1 7/5/1 2/6/1
f 3/22/6 5/7/6 6/9/6
f 3/23/3 6/10/3 9/12/3
f 1/23/5 4/10/5 7/12/5
f 4/23/3 2/10/3 10/12/3
f 5/23/5 3/10/5 11/12/5
f 10/24/1 11/16/1 12/18/1
